<?xml version="1.0" encoding="UTF-8"?>
<svg xmlns="http://www.w3.org/2000/svg" version="1.1" viewBox="0 0 447.9 99.2">
  <defs>
    <style>
      .cls-1 {
        fill: none;
      }

      .cls-1, .cls-2 {
        stroke-width: 0px;
      }

      .cls-2 {
        fill: #000;
      }
    </style>
  </defs>
  <g id="Rektangler">
    <rect class="cls-1" x="0" width="447.9" height="99.2"/>
  </g>
  <g id="Enhet_avdeling" data-name="Enhet, avdeling">
    <g>
      <path class="cls-2" d="M106.5,57.6c.6-2,.6-2.2-.5-2.5h-.4c-.1-.2-.1-.5.1-.6.7,0,1.4,0,2.3,0h3.9c1.3,0,2.3,0,2.9,0-.1.4-.6,2-.9,2.8,0,.2-.5.1-.5,0,.1-1.1.2-1.6-.7-1.9-.5-.1-1.1-.2-2.2-.2h-1.1c-.6,0-.6,0-.8.7l-1.4,4.6c-.1.4-.1.5.3.5h1.4c2,0,2.4-.1,2.9-1l.4-.6c.1-.1.5-.1.5,0-.1.4-.5,1.2-.7,2s-.5,1.6-.5,2.1c-.1.1-.4.1-.5,0v-.8c0-.7-.4-.9-2.1-.9h-1.5c-.5,0-.5,0-.7.6l-.9,3c-.6,1.9-.7,2.4.4,2.5h.8c.1.2,0,.5,0,.6-1.2,0-1.9,0-2.8,0s-1.5,0-2.4,0c-.2-.1-.2-.4,0-.5h.6c1-.2,1.2-.4,1.9-2.5l2.4-7.8Z"/>
      <path class="cls-2" d="M121,59.3c.4-.2.9,0,1,.3-.3.8-2.1,5.4-2.8,7.3-.1.4,0,.5.1.5.4,0,1-.4,2.1-1.4.1,0,.3.1.3.3-.9,1.2-2.4,2.3-3.5,2.3s-.6-.4-.6-.6,0-.3.2-.8l.7-1.9h0c-1.5,1.8-3.6,3.3-4.6,3.3s-.9-.6-.9-1.2.5-2.1,1.8-4c1-1.4,1.9-2.2,2.8-2.7.8-.5,1.3-.6,1.9-.6s.4,0,.5.1c0,0,.3.2.4.4l.6-1.3ZM117.4,61.7c-1.3,1.2-2.6,3.9-2.6,5.4s.1.4.3.4.8-.3,2-1.4c1.6-1.5,2.5-3.3,2.8-4.5-.1-.4-.5-.8-1-.8s-.8.2-1.5.8Z"/>
      <path class="cls-2" d="M126.9,56.6c.5-1.5.5-1.7.1-1.9l-.4-.2c-.1,0-.1-.2,0-.3.6-.3,1.6-.6,2.5-.8h.1c-.2.7-.4,1.4-1,3.2l-2.1,6.2h0c.6-.8,1.3-1.5,2.1-2.1.6-.4,1.4-.8,2.3-.8s1.5.7,1.5,1.1,0,.8-.9,1.5c-1,.9-2,1.6-3.3,1.8-.1,0-.1.3,0,.4.2.6.5,1.5.8,2,.2.5.5.7.7.7s.7-.3,1.3-1c.2,0,.3,0,.3.2-.7,1.6-1.8,2-2.1,2s-.6-.2-1-.8c-.2-.5-.8-1.7-1-2.2-.2-.5-.4-.8-.8-.7-.4.1-.5.2-.8.8l-1.1,2.6c0,.2-.2.3-.4.3s-.8,0-.7-.5l3.8-11.5ZM129.7,60.7c-.5,0-1.3.5-2,1.1-.8.6-1.6,1.7-1.9,2.3,0,.2,0,.4.2.3.4,0,1.6-.4,3.1-1.4.9-.6,1.3-1.3,1.3-1.8s-.2-.5-.7-.5Z"/>
      <path class="cls-2" d="M135,66.5c-.2.5,0,.7.1.7s1.1-.7,2.2-1.7c1.9-1.9,3-4.3,3.7-5.6.4,0,.9.1,1,.4-.2.6-1.6,4-2.4,6.5-.1.3-.1.5,0,.5.4,0,1.5-1,2-1.6.2,0,.4,0,.4.3-.5,1-2.5,2.6-3.6,2.6s-.6-.4-.5-.7l1.4-3.8h0c-1.5,1.9-4.1,4.5-5.2,4.5s-1-.9-.6-1.8l1.9-5.1c.1-.4.2-.6,0-.6-.4,0-1.5.9-2,1.4-.2,0-.4-.1-.4-.3.5-.8,2.6-2.5,3.6-2.5s.8.3.6.6l-2.3,6.1Z"/>
      <path class="cls-2" d="M145,67c-.2.5-.1.7,0,.7.5,0,1.4-1,2.4-2.1.2,0,.3,0,.3.3-.5,1-1.9,2.8-3.6,2.8s-.8-.3-.8-.6.1-.7.5-1.8l3.3-9.9c.5-1.5.3-1.7,0-1.8l-.4-.2c-.1,0-.1-.3,0-.3.4-.1,1.7-.5,2.6-.6h.1c-.3.9-.5,1.5-1.2,3.7l-3.3,9.8Z"/>
      <path class="cls-2" d="M152.7,60.9l-1.9,5.7c-.1.4,0,.5.1.5.3,0,1.7-1.1,2.4-1.9.2,0,.3.1.3.4-1.2,1.7-3.1,3-4,3s-.6-.3-.6-.6,0-.6.3-1.2l2-5.9h-1.6c0-.2,0-.5.2-.6l1.7-.3,1.2-2.1c.2-.1.6,0,.8.1l-.6,2h2.3c.1.2,0,.6-.2.8h-2.3Z"/>
      <path class="cls-2" d="M162,61.1c0,1.6-2.1,2.6-5.1,3.5-.1.4-.3,1-.3,1.9s.4,1.2,1,1.2,1.3-.4,2.2-1.2c.2,0,.3.2.3.4-1.3,1.6-2.5,1.9-3.3,1.9-1.2,0-1.7-1.2-1.7-2.2s.8-3.9,3.1-5.6c1.1-.8,1.9-1,2.5-1s1.3.7,1.3,1.2ZM158.6,61.5c-.8.9-1.3,1.8-1.5,2.4,1.4-.4,2-.8,2.8-1.5.6-.6.8-1.2.8-1.4s-.1-.5-.5-.5-.8.2-1.6,1Z"/>
      <path class="cls-2" d="M166.4,60.9l-1.9,5.7c-.1.4,0,.5.1.5.3,0,1.7-1.1,2.4-1.9.2,0,.3.1.3.4-1.2,1.7-3.1,3-4,3s-.6-.3-.6-.6,0-.6.3-1.2l2-5.9h-1.6c0-.2,0-.5.2-.6l1.7-.3,1.2-2.1c.2-.1.6,0,.8.1l-.6,2h2.3c.1.2,0,.6-.2.8h-2.3Z"/>
      <path class="cls-2" d="M178.1,60.9c-.1.4-.3,1-.5,1.9-.6,2.3-1.2,4.3-1.9,6.6-.5,1.9-1.2,2.9-1.6,3.4-.3.3-1.3,1.1-2.5,1.1s-1.5-.7-1.5-1,.2-.8.5-.9c.2-.1.4,0,.5,0,.5.5,1.1.9,1.6.9s.9-.1,1.3-1.8c1-3.3,1.7-6.9,2.7-10.3h-1.7c-.2-.2-.1-.6.1-.8h1.8c.5-1.9,1.1-3.5,2.3-5,1-1.2,2.1-1.7,3.3-1.7s1.6.5,1.6,1.4-.6,1.2-.9,1.2-.3-.2-.3-.3c0-1.1-.6-1.5-1.2-1.5s-1,.4-1.5,1.1c-1,1.4-1.4,2.9-1.9,4.9h2.6c.1.2.1.5-.2.8h-2.6Z"/>
      <path class="cls-2" d="M187.3,62.5c0,1.1-.7,3.1-2.2,4.7-1.3,1.3-2.4,1.4-3,1.4-1.3,0-2.2-1-2.1-2.8,0-1.3.9-3.3,2.3-4.7,1.1-1,2-1.4,2.9-1.4,1.5,0,2.2,1.1,2.1,2.6ZM183.5,61.5c-1.2,1.6-2,4.1-2.1,5.2,0,.7.2,1.3.9,1.3s1-.2,1.6-1.1c.9-1.2,1.9-4,1.9-5.1,0-.6-.1-1.4-.8-1.4s-.9.2-1.5,1Z"/>
      <path class="cls-2" d="M192.2,61.8l-.9,2.6h.1c.6-1.2,1.6-2.8,2.2-3.5.5-.6,1-1.1,1.5-1.1s.8.7.8,1-.2.9-.4,1.2c-.3.3-.6.3-.7-.1-.1-.5-.2-.8-.4-.8s-.4.2-.7.6c-1.3,1.6-2.4,4.2-3.5,6.6,0,.2-.2.2-.4.2s-.8,0-.7-.5c.3-.8,1.6-4.5,2.1-6.6,0-.2,0-.4-.2-.4-.5,0-1.1.6-1.5,1.1-.2,0-.4,0-.3-.3.7-1.1,1.5-2,2.5-2s.7,1.4.5,2Z"/>
      <path class="cls-2" d="M204.4,64.3h0c1.5-2.2,3.5-4.5,5.1-4.5s1.2.4,1.2,1.1-.2,1-.3,1.5c-.4,1-1.9,4.4-1.9,4.6,0,.2-.1.4,0,.4.4,0,1.4-.7,2-1.4.3,0,.3.1.3.3-.8,1.3-2.4,2.3-3.6,2.3s-.5-.3-.5-.5,0-.3.5-1.4c.4-1,1.2-3.1,1.7-4.1.2-.4.4-1.1.4-1.5s0-.5-.3-.5c-.5,0-1.7,1-2.9,2.5-1.1,1.4-2,3-3.2,5.3-.1.2-.2.2-.4.2s-.8,0-.6-.5c.1-.3,2.3-6.3,2.4-6.6.1-.3.1-.5,0-.5-.5,0-1.2.4-1.9,1-.2,0-.3-.1-.2-.3.8-1.1,2.1-1.9,3.1-1.9s.7.4.5.9l-1.4,3.6Z"/>
      <path class="cls-2" d="M219.8,59.3c.4-.2.9,0,1,.3-.3.8-2.1,5.4-2.8,7.3-.1.4,0,.5.1.5.4,0,1-.4,2.1-1.4.1,0,.3.1.3.3-.9,1.2-2.4,2.3-3.5,2.3s-.6-.4-.6-.6,0-.3.2-.8l.7-1.9h0c-1.5,1.8-3.6,3.3-4.6,3.3s-.9-.6-.9-1.2.5-2.1,1.8-4c1-1.4,1.9-2.2,2.8-2.7.8-.5,1.3-.6,1.9-.6s.4,0,.5.1c0,0,.3.2.4.4l.6-1.3ZM216.2,61.7c-1.3,1.2-2.6,3.9-2.6,5.4s.1.4.3.4.8-.3,2-1.4c1.6-1.5,2.5-3.3,2.8-4.5-.1-.4-.5-.8-1-.8s-.8.2-1.5.8Z"/>
      <path class="cls-2" d="M225.8,60.9l-1.9,5.7c-.1.4,0,.5.1.5.3,0,1.7-1.1,2.4-1.9.2,0,.3.1.3.4-1.2,1.7-3.1,3-4,3s-.6-.3-.6-.6,0-.6.3-1.2l2-5.9h-1.6c0-.2,0-.5.2-.6l1.7-.3,1.2-2.1c.2-.1.6,0,.8.1l-.6,2h2.3c.1.2,0,.6-.2.8h-2.3Z"/>
      <path class="cls-2" d="M230.3,66.5c-.2.5,0,.7.1.7s1.1-.7,2.2-1.7c1.9-1.9,3-4.3,3.7-5.6.4,0,.9.1,1,.4-.2.6-1.6,4-2.4,6.5-.1.3-.1.5,0,.5.4,0,1.5-1,2-1.6.2,0,.4,0,.4.3-.5,1-2.5,2.6-3.6,2.6s-.6-.4-.5-.7l1.4-3.8h0c-1.5,1.9-4.1,4.5-5.2,4.5s-1-.9-.6-1.8l1.9-5.1c.1-.4.2-.6,0-.6-.4,0-1.5.9-2,1.4-.2,0-.4-.1-.4-.3.5-.8,2.6-2.5,3.6-2.5s.8.3.6.6l-2.3,6.1Z"/>
      <path class="cls-2" d="M242.3,61.8l-.9,2.6h.1c.6-1.2,1.6-2.8,2.2-3.5.5-.6,1-1.1,1.5-1.1s.8.7.8,1-.2.9-.4,1.2c-.3.3-.6.3-.7-.1-.1-.5-.2-.8-.4-.8s-.4.2-.7.6c-1.3,1.6-2.4,4.2-3.5,6.6,0,.2-.2.2-.4.2s-.8,0-.7-.5c.3-.8,1.6-4.5,2.1-6.6,0-.2,0-.4-.2-.4-.5,0-1.1.6-1.5,1.1-.2,0-.4,0-.3-.3.7-1.1,1.5-2,2.5-2s.7,1.4.5,2Z"/>
      <path class="cls-2" d="M248.9,61.6c.1-.4.1-.6-.1-.6-.4,0-1.3.8-1.9,1.5-.2,0-.3-.2-.3-.4.7-.9,2.1-2.3,3.3-2.3s.9.6.6,1.4l-1.8,4.6c-.1.3-.2.7-.2,1s.2.8.6.8,1.3-.5,2.3-1.5c1.2-1.4,1.8-3,1.8-4s0-1-.2-1.5c0-.4.4-.8.8-.8.7,0,.8.8.8,1.3,0,1.5-1.6,4.5-3.4,6-1.6,1.3-2.8,1.5-3.3,1.5s-1-.6-1-1.3.2-1.2.5-2l1.4-3.7Z"/>
      <path class="cls-2" d="M258.2,61.6c.1-.2.1-.4,0-.4s-.7.2-1.7,1.1c-.2,0-.3-.2-.3-.4,1.1-1.3,2.8-2.1,3.4-2.1s.2.1.3.2c.1.1.1.3-.1.9l-2.5,5.9c0,.2-.1.5,0,.5.4,0,1.5-.7,2.2-1.5.2,0,.3.2.3.4-.3.6-2.5,2.5-3.9,2.5s-.2,0-.3-.2c-.1-.1-.2-.3,0-.6l2.6-6.3ZM260.7,56.3c0,.6-.5,1.3-1.1,1.3s-.7-.4-.7-.8.3-1.3,1.1-1.3.7.3.7.8Z"/>
      <path class="cls-2" d="M265.3,60.9l-1.9,5.7c-.1.4,0,.5.1.5.3,0,1.7-1.1,2.4-1.9.2,0,.3.1.3.4-1.2,1.7-3.1,3-4,3s-.6-.3-.6-.6,0-.6.3-1.2l2-5.9h-1.6c0-.2,0-.5.2-.6l1.7-.3,1.2-2.1c.2-.1.6,0,.8.1l-.6,2h2.3c.1.2,0,.6-.2.8h-2.3Z"/>
      <path class="cls-2" d="M274.6,61.1c0,1.6-2.1,2.6-5.1,3.5-.1.4-.3,1-.3,1.9s.4,1.2,1,1.2,1.3-.4,2.2-1.2c.2,0,.3.2.3.4-1.3,1.6-2.5,1.9-3.3,1.9-1.3,0-1.7-1.2-1.7-2.2s.8-3.9,3.1-5.6c1.1-.8,1.9-1,2.5-1s1.3.7,1.3,1.2ZM271.3,61.5c-.8.9-1.3,1.8-1.5,2.4,1.4-.4,2-.8,2.8-1.5.6-.6.8-1.2.8-1.4s-.1-.5-.5-.5-.8.2-1.6,1Z"/>
      <path class="cls-2" d="M277.9,64.3h0c1.5-2.2,3.5-4.5,5.1-4.5s1.2.4,1.2,1.1-.2,1-.3,1.5c-.4,1-1.9,4.4-1.9,4.6,0,.2-.1.4,0,.4.4,0,1.4-.7,2-1.4.3,0,.3.1.3.3-.8,1.3-2.4,2.3-3.6,2.3s-.5-.3-.5-.5,0-.3.5-1.4c.4-1,1.2-3.1,1.7-4.1.2-.4.4-1.1.4-1.5s0-.5-.3-.5c-.5,0-1.7,1-2.9,2.5-1.1,1.4-2,3-3.2,5.3-.1.2-.2.2-.4.2s-.8,0-.6-.5c.1-.3,2.3-6.3,2.4-6.6.1-.3.1-.5,0-.5-.5,0-1.2.4-1.9,1-.2,0-.3-.1-.2-.3.8-1.1,2.1-1.9,3.1-1.9s.7.4.5.9l-1.4,3.6Z"/>
      <path class="cls-2" d="M290.9,61c0,.3-.2.6-.4.6-.1,0-.3,0-.4-.2-.4-.4-.6-.7-1.3-.7s-.9.5-.9.8.1.9.7,1.9c.5.9.8,1.4.8,2.3,0,.6-.3,1.3-1.1,2-.5.5-1.3.8-2.1.8s-1.3-.6-1.3-1.1,0-.4.3-.7c.2-.1.4-.1.6,0,.3.3.9.8,1.4.8s1-.5,1-1.2-.2-1-.8-1.8c-.5-.9-.7-1.6-.7-1.9,0-.8.4-1.4,1.3-2.2.6-.5,1.3-.7,1.5-.7.8,0,1.3.7,1.3,1.2Z"/>
      <path class="cls-2" d="M295.4,56.6c.5-1.5.5-1.7.1-1.9l-.4-.2c-.1,0-.1-.2,0-.3.6-.3,1.6-.6,2.5-.8h.1c-.2.7-.4,1.4-1,3.2l-2.1,6.2h0c.6-.8,1.3-1.5,2.1-2.1.6-.4,1.4-.8,2.3-.8s1.5.7,1.5,1.1,0,.8-.9,1.5c-1,.9-2,1.6-3.3,1.8-.1,0-.1.3,0,.4.2.6.5,1.5.8,2,.2.5.5.7.7.7s.7-.3,1.3-1c.2,0,.3,0,.3.2-.7,1.6-1.8,2-2.1,2s-.6-.2-1-.8c-.2-.5-.8-1.7-1-2.2-.2-.5-.4-.8-.8-.7-.4.1-.5.2-.8.8l-1.1,2.6c0,.2-.2.3-.4.3s-.8,0-.7-.5l3.8-11.5ZM298.3,60.7c-.5,0-1.3.5-2,1.1-.8.6-1.6,1.7-1.9,2.3,0,.2,0,.4.2.3.4,0,1.6-.4,3.1-1.4.9-.6,1.3-1.3,1.3-1.8s-.2-.5-.7-.5Z"/>
      <path class="cls-2" d="M308.8,59.3c.4-.2.9,0,1,.3-.3.8-2.1,5.4-2.8,7.3-.1.4,0,.5.1.5.4,0,1-.4,2.1-1.4.1,0,.3.1.3.3-.9,1.2-2.4,2.3-3.5,2.3s-.6-.4-.6-.6,0-.3.2-.8l.7-1.9h0c-1.5,1.8-3.6,3.3-4.6,3.3s-.9-.6-.9-1.2.5-2.1,1.8-4c1-1.4,1.9-2.2,2.8-2.7.8-.5,1.3-.6,1.9-.6s.4,0,.5.1c0,0,.3.2.4.4l.6-1.3ZM305.1,61.7c-1.3,1.2-2.6,3.9-2.6,5.4s.1.4.3.4.8-.3,2-1.4c1.6-1.5,2.5-3.3,2.8-4.5-.1-.4-.5-.8-1-.8s-.8.2-1.5.8Z"/>
      <path class="cls-2" d="M315.4,60.2c.2,0,.4,0,.8,0,1,0,2.8.4,2.8,2.4s-1.2,3.6-2.8,4.9c-1.3,1.1-2.9,1.2-3,1.2-.2,0-.4,0-.6-.1-.2,0-.3.2-.3.4l-.9,2.5c-.6,1.6-.5,1.8.2,1.9h.9c.1.3.1.5,0,.6-1.6,0-3.1,0-4.5.1-.1-.1-.1-.3,0-.5h.5c1.2-.3,1.2-.8,1.6-1.6l3.9-10.9c-.8.2-1.2.4-2.1.9-.2,0-.3-.2-.2-.4.7-.5,1.6-.9,2.6-1.1l.6-1.7c.3-.2,1.1,0,1.2.3l-.4,1.3ZM313,66.9c0,.2,0,.4,0,.6.1.2.4.5.8.5s1.4-.3,2.3-1.7c1-1.5,1.2-3,1.2-3.9s-.8-1.6-1.6-1.6-.4,0-.5,0l-2.2,6.1Z"/>
      <path class="cls-2" d="M333.3,62.5c0,1.1-.7,3.1-2.2,4.7-1.3,1.3-2.4,1.4-3,1.4-1.3,0-2.2-1-2.1-2.8,0-1.3.9-3.3,2.3-4.7,1.1-1,2-1.4,2.9-1.4,1.5,0,2.2,1.1,2.1,2.6ZM329.5,61.5c-1.2,1.6-2,4.1-2.1,5.2,0,.7.2,1.3.9,1.3s1-.2,1.6-1.1c.9-1.2,1.9-4,1.9-5.1,0-.6-.1-1.4-.8-1.4s-.9.2-1.5,1Z"/>
      <path class="cls-2" d="M340.5,60c.2,0,.4.2.5.2.2,0,.6,0,1-.1.4-.1.8-.2.9-.2.3,0,.4.2.4.5,0,.5-.2.6-.5.6s-.5,0-.7-.1c-.2,0-.6-.1-.8-.1s-.2,0-.2.1c0,.2.1.5.1.8,0,1.7-1.2,3.3-2.6,4.2-.2.1-1,.4-1.5.5-.2.1-.5.4-.5.7s.1.6.7,1c.5.3,1.3.8,2,1.2,1.2.7,1.6,1.4,1.6,2,0,1.2-1.7,2.5-5.1,2.5s-3.3-.6-3.3-2,2.4-2.6,3.6-2.9c-.5-.4-.7-.7-.7-1s.6-1.2.9-1.6c-.4-.1-1.5-.5-1.5-1.9s.6-2.6,1.7-3.5c1-.9,2-1.2,3.1-1.2s.4.1.7.2ZM339.7,71.8c0-.4-.2-.8-.9-1.3-.9-.6-1.6-1-1.9-1-.5,0-1.3.3-1.9.8-.6.4-.8.9-.8,1.4,0,1,1.4,1.6,2.8,1.6s2.8-.4,2.8-1.4ZM338.2,61.3c-.8.9-1.9,2.8-1.9,3.8s.3.7.6.7.8-.1,1.4-.8c1.2-1.4,1.9-3.2,1.9-3.9s-.3-.7-.6-.7-.8.1-1.4.9Z"/>
      <path class="cls-2" d="M352.4,60.9l-1.9,5.7c-.1.4,0,.5.1.5.3,0,1.7-1.1,2.4-1.9.2,0,.3.1.3.4-1.2,1.7-3.1,3-4,3s-.6-.3-.6-.6,0-.6.3-1.2l2-5.9h-1.6c0-.2,0-.5.2-.6l1.7-.3,1.2-2.1c.2-.1.6,0,.8.1l-.6,2h2.3c.1.2,0,.6-.2.8h-2.3Z"/>
      <path class="cls-2" d="M361.6,61.1c0,1.6-2.1,2.6-5.1,3.5-.1.4-.3,1-.3,1.9s.4,1.2,1,1.2,1.3-.4,2.2-1.2c.2,0,.3.2.3.4-1.3,1.6-2.5,1.9-3.3,1.9-1.3,0-1.7-1.2-1.7-2.2s.8-3.9,3.1-5.6c1.1-.8,1.9-1,2.5-1s1.3.7,1.3,1.2ZM358.3,61.5c-.8.9-1.3,1.8-1.5,2.4,1.4-.4,2-.8,2.8-1.5.6-.6.8-1.2.8-1.4s-.1-.5-.5-.5-.8.2-1.6,1Z"/>
      <path class="cls-2" d="M365.9,56.6c.5-1.5.5-1.7.1-1.9l-.4-.2c-.1,0-.1-.2,0-.3.6-.3,1.6-.6,2.5-.8h.1c-.2.7-.4,1.4-1,3.2l-2.1,6.2h0c.6-.8,1.3-1.5,2.1-2.1.6-.4,1.4-.8,2.3-.8s1.5.7,1.5,1.1,0,.8-.9,1.5c-1,.9-2,1.6-3.3,1.8-.1,0-.1.3,0,.4.2.6.5,1.5.8,2,.2.5.5.7.7.7s.7-.3,1.3-1c.2,0,.3,0,.3.2-.7,1.6-1.8,2-2.1,2s-.6-.2-1-.8c-.2-.5-.8-1.7-1-2.2-.2-.5-.4-.8-.8-.7-.4.1-.5.2-.8.8l-1.1,2.6c0,.2-.2.3-.4.3s-.8,0-.7-.5l3.8-11.5ZM368.8,60.7c-.5,0-1.3.5-2,1.1-.8.6-1.6,1.7-1.9,2.3,0,.2,0,.4.2.3.4,0,1.6-.4,3.1-1.4.9-.6,1.3-1.3,1.3-1.8s-.2-.5-.7-.5Z"/>
      <path class="cls-2" d="M374.6,64.3h0c1.5-2.2,3.5-4.5,5.1-4.5s1.2.4,1.2,1.1-.2,1-.3,1.5c-.4,1-1.9,4.4-1.9,4.6,0,.2-.1.4,0,.4.4,0,1.4-.7,2-1.4.3,0,.3.1.3.3-.8,1.3-2.4,2.3-3.6,2.3s-.5-.3-.5-.5,0-.3.5-1.4c.4-1,1.2-3.1,1.7-4.1.2-.4.4-1.1.4-1.5s0-.5-.3-.5c-.5,0-1.7,1-2.9,2.5-1.1,1.4-2,3-3.2,5.3-.1.2-.2.2-.4.2s-.8,0-.6-.5c.1-.3,2.3-6.3,2.4-6.6.1-.3.1-.5,0-.5-.5,0-1.2.4-1.9,1-.2,0-.3-.1-.2-.3.8-1.1,2.1-1.9,3.1-1.9s.7.4.5.9l-1.4,3.6Z"/>
      <path class="cls-2" d="M389.9,62.5c0,1.1-.7,3.1-2.2,4.7-1.3,1.3-2.4,1.4-3,1.4-1.3,0-2.2-1-2.1-2.8,0-1.3.9-3.3,2.3-4.7,1.1-1,2-1.4,2.9-1.4,1.5,0,2.2,1.1,2.1,2.6ZM386.1,61.5c-1.2,1.6-2,4.1-2.1,5.2,0,.7.2,1.3.9,1.3s1-.2,1.6-1.1c.9-1.2,1.9-4,1.9-5.1,0-.6-.1-1.4-.8-1.4s-.9.2-1.5,1Z"/>
      <path class="cls-2" d="M393,67c-.2.5-.1.7,0,.7.5,0,1.4-1,2.4-2.1.2,0,.3,0,.3.3-.5,1-1.9,2.8-3.6,2.8s-.8-.3-.8-.6.1-.7.5-1.8l3.3-9.9c.5-1.5.3-1.7,0-1.8l-.4-.2c-.1,0-.1-.3,0-.3.4-.1,1.7-.5,2.6-.6h.1c-.3.9-.5,1.5-1.2,3.7l-3.3,9.8Z"/>
      <path class="cls-2" d="M404.1,62.5c0,1.1-.7,3.1-2.2,4.7-1.3,1.3-2.4,1.4-3,1.4-1.3,0-2.2-1-2.1-2.8,0-1.3.9-3.3,2.3-4.7,1.1-1,2-1.4,2.9-1.4,1.5,0,2.2,1.1,2.1,2.6ZM400.3,61.5c-1.2,1.6-2,4.1-2.1,5.2,0,.7.2,1.3.9,1.3s1-.2,1.6-1.1c.9-1.2,1.9-4,1.9-5.1,0-.6-.1-1.4-.8-1.4s-.9.2-1.5,1Z"/>
      <path class="cls-2" d="M411.3,60c.2,0,.4.2.5.2.2,0,.6,0,1-.1.4-.1.8-.2.9-.2.3,0,.4.2.4.5,0,.5-.2.6-.5.6s-.5,0-.7-.1c-.2,0-.6-.1-.8-.1s-.2,0-.2.1c0,.2.1.5.1.8,0,1.7-1.2,3.3-2.6,4.2-.2.1-1,.4-1.5.5-.2.1-.5.4-.5.7s.1.6.7,1c.5.3,1.3.8,2,1.2,1.2.7,1.6,1.4,1.6,2,0,1.2-1.7,2.5-5.1,2.5s-3.3-.6-3.3-2,2.4-2.6,3.6-2.9c-.5-.4-.7-.7-.7-1s.6-1.2.9-1.6c-.4-.1-1.5-.5-1.5-1.9s.6-2.6,1.7-3.5c1-.9,2-1.2,3.1-1.2s.4.1.7.2ZM410.5,71.8c0-.4-.2-.8-.9-1.3-.9-.6-1.6-1-1.9-1-.5,0-1.3.3-1.9.8-.6.4-.8.9-.8,1.4,0,1,1.4,1.6,2.8,1.6s2.8-.4,2.8-1.4ZM408.9,61.3c-.8.9-1.9,2.8-1.9,3.8s.3.7.6.7.8-.1,1.4-.8c1.2-1.4,1.9-3.2,1.9-3.9s-.3-.7-.6-.7-.8.1-1.4.9Z"/>
      <path class="cls-2" d="M416.6,61.6c.1-.2.1-.4,0-.4s-.7.2-1.7,1.1c-.2,0-.3-.2-.3-.4,1.1-1.3,2.8-2.1,3.4-2.1s.2.1.3.2c.1.1.1.3-.1.9l-2.5,5.9c0,.2-.1.5,0,.5.4,0,1.5-.7,2.2-1.5.2,0,.3.2.3.4-.3.6-2.5,2.5-3.9,2.5s-.2,0-.3-.2c-.1-.1-.2-.3,0-.6l2.6-6.3ZM419.1,56.3c0,.6-.5,1.3-1.1,1.3s-.7-.4-.7-.8.3-1.3,1.1-1.3.7.3.7.8Z"/>
    </g>
  </g>
  <g id="Universitetet_i_Bergen_outline" data-name="Universitetet i Bergen outline">
    <path id="Universitetet_i_Bergen_outline-2" data-name="Universitetet i Bergen outline" class="cls-2" d="M115.8,32.3h0c-.7,0-1.3,0-2.2,0s-1.6,0-2.3,0h0s0,0,0,0c0,0-.1.1-.1.3,0,.1,0,.3,0,.3h0s.5,0,.5,0c.5,0,.8.2,1,.4.2.4.4,1.9.4,4.2v2.4c0,4.5-2.2,5.4-4,5.4-2.8,0-4.1-1.7-4.1-5.4v-4.5c0-2.1,0-2.4,1.2-2.5h.5s0,0,0,0c0,0,.1-.2.1-.3,0-.1,0-.3-.2-.3h0s0,0,0,0c-1,0-1.7,0-2.5,0s-1.6,0-2.6,0h0s0,0,0,0c-.1,0-.2.2-.2.3,0,.1,0,.3.1.3h0s.5,0,.5,0c1.1,0,1.2.4,1.2,2.5v4.9c0,2.5.5,4,1.6,4.9.9.8,2.2,1.2,3.9,1.2s3.1-.6,4-1.5c1-1.1,1.5-2.7,1.5-5v-2.3c0-1.1,0-3.5.3-4.2.1-.2.5-.4,1-.4h.5s0,0,0,0c0,0,.1-.2,0-.4,0-.1,0-.2-.2-.2h0ZM135.3,32.3h0c-.7,0-1.2,0-2.1,0s-1.4,0-2.4,0h0s0,0,0,0c0,0-.2.1-.2.3,0,.1,0,.3.1.4h0s.4,0,.4,0c.7,0,1.1.2,1.2.4.3.4.4,1.9.4,4.2v4.4c0,.3,0,.6,0,.8-.8-.8-1.6-1.7-2.6-2.8-.3-.3-.5-.6-.8-.9l-2-2.2h0c-2-2.3-3.2-3.8-3.5-4.5h0c0,0,0,0,0,0-.2,0-.6,0-.9,0s-1.5,0-2.3,0h0s0,0,0,0c0,0-.1.1-.2.3,0,.1,0,.3.1.4h0s.4,0,.4,0c.6,0,1,.2,1.2.5.4.4.4.8.4,1.4v6.1c0,1.1,0,3.3-.3,4,0,.2-.4.3-.8.4h-.6c0,0,0,0,0,0,0,0-.1.2-.1.3,0,.1,0,.2.2.3h0s0,0,0,0c.7,0,1.3,0,2.1,0s1.4,0,2.4,0h0s0,0,0,0c0,0,.1-.1.2-.3,0-.1,0-.3,0-.4h0s-.7,0-.7,0c-.5,0-.9-.2-1-.4-.2-.4-.4-1.9-.4-4.2v-4.5c0-.4,0-.9,0-1.2.3.3.9,1.1,1.5,1.7.3.4.7.8.9,1l4.8,5.4c1.6,1.8,2.4,2.7,2.6,3.1h0s0,0,0,0c.2,0,.4-.1.5-.3h0s0,0,0,0c0-.2,0-1.1,0-3.6v-5.2c0-1.1,0-3.3.3-3.9,0-.1.4-.3,1.1-.4h.3s0,0,0,0c0,0,.1-.2.1-.4,0-.1,0-.2-.2-.3h0ZM144.9,33h.5s0,0,0,0c.1,0,.1-.2.1-.3,0-.1,0-.3-.2-.3h0s0,0,0,0c-1,0-1.7,0-2.6,0s-1.6,0-2.6,0h0s0,0,0,0c-.1,0-.1.2-.2.3,0,0,0,.2.1.3h0s.5,0,.5,0c1.1,0,1.2.4,1.2,2.6v7.3c0,2.2,0,2.4-1.2,2.5h-.5c0,0,0,0,0,0,0,0-.1.3,0,.4,0,.1,0,.2.2.3h0s0,0,0,0c1,0,1.7,0,2.6,0s1.5,0,2.6,0h0s0,0,0,0c.1,0,.2-.2.2-.3,0,0,0-.2-.1-.3h-.5c-1.1-.2-1.2-.5-1.2-2.6v-7.3c0-2.2,0-2.5,1.2-2.6h0ZM164.3,32.3h0c-.7,0-1.3,0-2,0s-1.6,0-2.1,0h0s0,0,0,0c0,0-.2.2-.2.3,0,.1,0,.3.1.3h0s.4,0,.4,0c.8,0,.9.3.9.3,0,.1,0,.4-.2.8-.4.9-1.3,3.3-1.9,4.6-.1.3-.3.8-.5,1.3-.4,1-.9,2.2-1.4,3.2-1-2.3-1.9-4.6-2.9-6.9-.6-1.5-1-2.6-1-2.9,0-.1.2-.2.9-.3h.3s0,0,0,0c0,0,.1-.2.1-.3,0-.1,0-.3-.2-.3h0s0,0,0,0c-.9,0-1.6,0-2.5,0s-1.5,0-2.1,0h0s0,0,0,0c0,0-.2.2-.2.3,0,.1,0,.3.1.3h0s.4,0,.4,0c.8,0,1.1.5,1.6,1.6l3.6,8.9c.3.7.7,1.8.9,2.7h0s0,0,0,0c.1,0,.2,0,.3,0s.2,0,.3,0h0s0,0,0,0c.4-1.1,1.4-3.6,2.1-5.4l1.1-2.5c1-2.2,1.8-3.8,2.3-4.7.3-.4.6-.6,1-.7h.6s0,0,0,0c0,0,.1-.2,0-.4,0-.1,0-.2-.1-.3h0ZM179.3,43c-.1,0-.3,0-.4,0h0c-.5,1-1.1,1.8-1.4,2-.5.2-1.1.3-2.6.3s-2.2-.2-2.4-.4c-.3-.3-.4-1-.4-2.1v-2.9c0-.5,0-.5.6-.5h1.2c.7,0,1.3,0,1.6.1.4,0,.5.4.6.7l.2.8h0c0,.1.3.2.4.1.1,0,.2,0,.3-.1h0c0-.2,0-.5,0-.8,0-.4,0-.8,0-1.2s0-.9,0-1.3c0-.3,0-.6,0-.8h0s0,0,0,0c0,0-.2-.1-.3-.1-.1,0-.3,0-.4.1l-.2.9c-.1.5-.2.6-.4.7-.2,0-.8.1-1.7.1h-1.2q-.6,0-.6-.5v-4.1q0-.7.5-.7h1.5c.9,0,1.6,0,2,.1,1,.2,1.2.9,1.5,1.8h0c0,.1,0,.1,0,.1,0,0,.2.1.3.1.1,0,.3,0,.3-.2h0s0-.3,0-.3c0-.9-.2-2.2-.3-2.5h0c0,0,0,0,0,0-.2,0-1.5,0-2.8,0h-3.9c-.8,0-1.5,0-2.4,0h0s0,0,0,0c-.1,0-.1.2-.2.3,0,0,0,.2.1.3h.4c1.1.2,1.2.4,1.2,2.6v7.4c0,2.2-.1,2.4-1.2,2.5h-.7c0,0,0,0,0,0,0,0-.1.3,0,.4,0,.1,0,.2.2.3h0s0,0,0,0c1.2,0,1.9,0,2.8,0h1.9c1.8,0,3.7,0,5.5,0h0s0,0,0,0c.3-.6.8-2.2.9-2.9h0s0,0,0,0c0-.1-.1-.2-.3-.2h0ZM196.8,45.8h0c-.5,0-1-.2-1.4-.6-1.4-1.2-2.6-2.9-4.1-5.5-.1-.2-.2-.3-.1-.4.6-.3,2.6-1.2,2.6-3.5s-1-2.5-1.8-3c-1-.6-2.3-.6-3.5-.6-1.9,0-3.3,0-4.6.2h0c0,0-.2.2-.2.3,0,.1,0,.3.1.4h.7c.8.2.8.4.8,2.4v7.4c0,2.2,0,2.4-1.2,2.5h-.5c0,0,0,0,0,0,0,.1-.1.3,0,.4,0,.1,0,.2.1.2h0s0,0,0,0c1,0,1.8,0,2.6,0s1.6,0,2.4,0h0s0,0,0,0c0,0,.1-.1.2-.3,0-.2,0-.3,0-.4h0s-.5,0-.5,0c-1.1-.2-1.2-.4-1.2-2.5v-2.6c0-.4,0-.4.9-.4s1.1.2,1.4.6c.3.5.7,1,1,1.6.4.6.7,1.1,1,1.5,1.4,2,2.5,2.6,4.3,2.6s.7,0,.9-.1h0c0,0,.1-.2,0-.3,0,0,0-.2-.1-.2h0ZM187.3,33.6c0-.5,0-.6,1.3-.6,2.4,0,3.2,1.7,3.2,3.1s-.3,2-1,2.5c-.6.5-1.4.5-2.1.5-1,0-1.3,0-1.4,0,0,0,0-.3,0-.6v-4.8h0ZM206.3,38.5l-1.6-1c-.6-.4-1.7-1.2-1.7-2.5s.2-2.2,2.4-2.2,2.4,1.2,2.7,2.3h0c0,0,.2.1.3.1.1,0,.3,0,.4-.2h0c0-1-.2-2.1-.4-2.6h0c0,0,0,0,0,0-.1,0-.4,0-.7-.1-.5-.1-1.2-.3-1.9-.3-2.6,0-4.3,1.5-4.3,3.6s1.2,2.9,2.3,3.6l2,1.3c1.5.9,1.7,1.9,1.7,2.8s-.8,2.3-2.5,2.3-3.1-1.6-3.5-3h0c0,0-.1-.1-.2-.1,0,0,0,0,0,0-.1,0-.3,0-.4.2h0c0,1,.3,2.5.6,3h0s0,0,0,0c.4.2,1.5.8,3.3.8,2.7,0,4.5-1.6,4.5-3.9s-.9-2.9-2.6-4h0ZM218.3,33h.5s0,0,0,0c.1,0,.1-.2.1-.3,0-.1,0-.3-.2-.3h0s0,0,0,0c-1,0-1.7,0-2.6,0s-1.6,0-2.6,0h0s0,0,0,0c-.1,0-.1.2-.2.3,0,0,0,.2.1.3h0s.5,0,.5,0c1.1,0,1.2.4,1.2,2.6v7.3c0,2.2,0,2.4-1.2,2.5h-.5c0,0,0,0,0,0,0,0-.1.3,0,.4,0,.1,0,.2.2.3h0s0,0,0,0c1,0,1.7,0,2.6,0s1.5,0,2.6,0h0s0,0,0,0c.1,0,.2-.2.2-.3,0,0,0-.2-.1-.3h-.5c-1.2-.2-1.2-.5-1.2-2.6v-7.3c0-2.2,0-2.5,1.2-2.6h0ZM236,31.8h0s0,0,0,0c-.3.5-.4.5-1.5.5h-8.5c-1,0-1.5,0-1.6-.6h0s0,0,0,0c0,0-.4,0-.5,0h0s0,0,0,0c-.1.8-.4,2.1-.8,3.1h0s0,0,0,0c0,.1.2.2.3.2.1,0,.2,0,.3,0h0s0,0,0,0c.2-.5.4-.9.9-1.4.5-.4,1.5-.5,2.5-.5h1.1q.5,0,.5.6v9.2c0,2.2-.1,2.4-1.2,2.5h-.7c0,0,0,0,0,0,0,0-.2.2-.1.3,0,.1,0,.3.2.3h0s0,0,0,0c1.3,0,2,0,2.9,0s1.5,0,2.7,0h0s0,0,0,0c.1,0,.2-.2.2-.3,0,0,0-.2-.1-.3h-.7c-1.1-.2-1.2-.4-1.2-2.6v-9.2c0-.3,0-.4,0-.5,0,0,.2,0,.5,0h1.5c1.1,0,1.9.2,2.3.5.2.2.4.7.5,1.5h0s0,0,0,0c0,0,.2.1.4.1.1,0,.2,0,.3-.2h0s0,0,0,0c0-.6,0-2.3.3-3.1h0s0,0,0,0c0-.1-.4-.1-.5,0h0ZM251.6,43c-.1,0-.3,0-.4,0h0c-.5,1-1.1,1.8-1.4,2-.5.2-1.1.3-2.6.3s-2.2-.2-2.4-.4c-.3-.3-.4-1-.4-2.1v-2.9c0-.5,0-.5.6-.5h1.2c.8,0,1.3,0,1.6.1.4,0,.5.4.6.7l.2.8h0c0,.1.3.2.4.1.1,0,.2,0,.3-.1h0c0-.2,0-.5,0-.8,0-.4,0-.8,0-1.2s0-.9,0-1.3c0-.3,0-.6,0-.8h0s0,0,0,0c0,0-.2-.1-.3-.1-.1,0-.3,0-.4.1l-.2.9c-.1.5-.2.6-.4.7-.2,0-.8.1-1.7.1h-1.2q-.6,0-.6-.5v-4.1q0-.7.5-.7h1.5c.9,0,1.6,0,2,.1,1,.2,1.2.9,1.5,1.8h0c0,.1,0,.1,0,.1,0,0,.2.1.3.1.1,0,.3,0,.3-.2h0s0-.3,0-.3c0-.9-.2-2.2-.3-2.5h0c0,0,0,0,0,0-.2,0-1.5,0-2.8,0h-3.9c-.8,0-1.5,0-2.4,0h0s0,0,0,0c-.1,0-.1.2-.2.3,0,0,0,.2.1.3h.4c1.2.2,1.2.4,1.2,2.6v7.4c0,2.2-.1,2.4-1.2,2.5h-.7c0,0,0,0,0,0,0,0-.1.3,0,.4,0,.1,0,.2.2.3h0s0,0,0,0c1.2,0,1.9,0,2.8,0h1.9c1.8,0,3.7,0,5.5,0h0s0,0,0,0c.3-.6.8-2.2.9-2.9h0s0,0,0,0c0-.1-.1-.2-.3-.2h0ZM268.1,31.8h0s0,0,0,0c-.3.5-.4.5-1.5.5h-8.5c-1,0-1.5,0-1.6-.6h0s0,0,0,0c0,0-.4,0-.5,0h0s0,0,0,0c-.1.8-.4,2.1-.8,3.1h0s0,0,0,0c0,.1.2.2.3.2.1,0,.2,0,.3,0h0s0,0,0,0c.2-.5.4-.9.9-1.4.5-.4,1.5-.5,2.5-.5h1.1q.5,0,.5.6v9.2c0,2.2-.1,2.4-1.2,2.5h-.7c0,0,0,0,0,0,0,0-.2.2-.1.3,0,.1,0,.3.2.3h0s0,0,0,0c1.3,0,2,0,2.9,0s1.5,0,2.7,0h0s0,0,0,0c.1,0,.1-.2.2-.3,0,0,0-.2-.1-.3h-.7c-1.1-.2-1.2-.4-1.2-2.6v-9.2c0-.3,0-.4,0-.5,0,0,.2,0,.5,0h1.5c1.1,0,1.9.2,2.3.5.2.2.4.7.5,1.5h0s0,0,0,0c0,0,.3.1.4.1.1,0,.2,0,.3-.2h0s0,0,0,0c0-.6,0-2.3.3-3.1h0s0,0,0,0c0-.1-.4-.1-.5,0h0ZM283.7,43c-.1,0-.3,0-.4,0h0c-.5,1-1.1,1.8-1.4,2-.5.2-1.1.3-2.6.3s-2.2-.2-2.4-.4c-.3-.3-.4-1-.4-2.1v-2.9c0-.5,0-.5.6-.5h1.2c.8,0,1.3,0,1.6.1.4,0,.5.4.6.7l.2.8h0c0,.1.3.2.4.1.1,0,.2,0,.3-.1h0c0-.2,0-.5,0-.8,0-.4,0-.8,0-1.2s0-.9,0-1.3c0-.3,0-.6,0-.8h0s0,0,0,0c0,0-.2-.1-.3-.1-.1,0-.3,0-.4.1l-.2.9c-.1.5-.2.6-.4.7-.2,0-.8.1-1.7.1h-1.2q-.6,0-.6-.5v-4.1q0-.7.5-.7h1.5c.9,0,1.6,0,2,.1,1,.2,1.2.9,1.5,1.8h0c0,.1,0,.1,0,.1,0,0,.2.1.3.1.1,0,.3,0,.3-.2h0s0-.3,0-.3c0-.9-.2-2.2-.3-2.5h0c0,0,0,0,0,0-.2,0-1.5,0-2.8,0h-3.9c-.8,0-1.5,0-2.4,0h0s0,0,0,0c-.1,0-.1.2-.2.3,0,0,0,.2.1.3h.4c1.2.2,1.2.4,1.2,2.6v7.4c0,2.2-.1,2.4-1.2,2.5h-.7c0,0,0,0,0,0,0,0-.1.3,0,.4,0,.1,0,.2.2.3h0s0,0,0,0c1.2,0,1.9,0,2.8,0h1.9c1.8,0,3.7,0,5.5,0h0s0,0,0,0c.3-.6.8-2.2.9-2.9h0s0,0,0,0c0-.1-.1-.2-.3-.2h0ZM300.3,31.8h0s0,0,0,0c-.3.5-.4.5-1.5.5h-8.5c-1,0-1.5,0-1.6-.6h0s0,0,0,0c0,0-.4,0-.5,0h0s0,0,0,0c-.1.8-.4,2.1-.8,3.1h0s0,0,0,0c0,.1.2.2.3.2.1,0,.2,0,.3,0h0s0,0,0,0c.2-.5.4-.9.9-1.4.5-.4,1.5-.5,2.5-.5h1.1q.5,0,.5.6v9.2c0,2.2-.1,2.4-1.2,2.5h-.7c0,0,0,0,0,0,0,0-.2.2-.1.3,0,.1,0,.3.2.3h0s0,0,0,0c1.3,0,2,0,2.9,0s1.5,0,2.7,0h0s0,0,0,0c.1,0,.2-.2.2-.3,0,0,0-.2-.1-.3h-.7c-1.1-.2-1.2-.4-1.2-2.6v-9.2c0-.3,0-.4,0-.5,0,0,.2,0,.5,0h1.5c1.1,0,1.9.2,2.3.5.2.2.4.7.5,1.5h0s0,0,0,0c0,0,.3.1.4.1.1,0,.2,0,.3-.2h0s0,0,0,0c0-.6,0-2.3.3-3.1h0s0,0,0,0c0-.1-.3-.1-.5,0h0ZM316.6,33h.5s0,0,0,0c.1,0,.1-.2.1-.3,0-.1,0-.3-.2-.3h0s0,0,0,0c-1,0-1.7,0-2.6,0s-1.6,0-2.6,0h0s0,0,0,0c-.1,0-.1.2-.2.3,0,0,0,.2.1.3h0s.5,0,.5,0c1.1,0,1.2.4,1.2,2.6v7.3c0,2.2,0,2.4-1.2,2.5h-.5c0,0,0,0,0,0,0,0-.1.3,0,.4,0,.1,0,.2.2.3h0s0,0,0,0c1,0,1.7,0,2.6,0s1.5,0,2.6,0h0s0,0,0,0c.1,0,.1-.2.2-.3,0,0,0-.2-.1-.3h-.6c-1.1-.2-1.2-.5-1.2-2.6v-7.3c0-2.2,0-2.5,1.2-2.6h0ZM336.8,38.6c-.2,0-.3,0-.3-.2,1-.5,2.1-1.2,2.1-2.9s-.6-2.1-1.6-2.6c-1-.5-2.4-.6-3.5-.6-1.8,0-3.2,0-4.4.2h0c0,0-.2.2-.2.3,0,.1,0,.3.1.4h0s.7,0,.7,0c.9,0,.9.4.9,1.9v7.8c0,2.2,0,2.3-1.1,2.5h-.4c0,0,0,0,0,0,0,0-.1.3,0,.4,0,.1,0,.2.2.3h0s0,0,0,0c.2,0,.5,0,.7,0,.5,0,1,0,1.6,0s1,0,1.5,0c.4,0,.7,0,1,0,3.5,0,5.6-1.5,5.6-4.1s-1.8-3.3-2.8-3.5h0ZM334.4,45.4c-.8,0-1.3-.2-1.6-.5-.4-.4-.4-1.5-.4-2.2v-3c0-.3,0-.5,1.1-.5,3.5,0,4,2.2,4,3.4,0,2.4-2,2.8-3.2,2.8h0ZM332.5,38.3c0,0,0-.2,0-.4v-4.2c0-.4,0-.4.2-.5.2,0,.5-.1.9-.1.7,0,3,.2,3,2.7s-.9,2.5-3.2,2.6c-.5,0-.8,0-.9,0h0ZM354.7,43c-.1,0-.3,0-.4,0h0c-.5,1-1.1,1.8-1.4,2-.5.2-1.1.3-2.6.3s-2.2-.2-2.4-.4c-.3-.3-.4-1-.4-2.1v-2.9c0-.5,0-.5.6-.5h1.2c.8,0,1.3,0,1.6.1.4,0,.5.4.6.7l.2.8h0c0,.1.3.2.4.1.1,0,.2,0,.3-.1h0c0-.2,0-.5,0-.8,0-.4,0-.8,0-1.2s0-.9,0-1.3c0-.3,0-.6,0-.8h0s0,0,0,0c0,0-.2-.1-.3-.1-.1,0-.3,0-.4.1l-.2.9c-.1.5-.2.6-.4.7-.2,0-.8.1-1.7.1h-1.2q-.6,0-.6-.5v-4.1q0-.7.5-.7h1.5c.9,0,1.6,0,2,.1,1,.2,1.2.9,1.5,1.8h0c0,.1,0,.1,0,.1,0,0,.2.1.3.1.1,0,.3,0,.3-.2h0s0-.3,0-.3c0-.9-.2-2.2-.3-2.5h0c0,0,0,0,0,0-.2,0-1.5,0-2.8,0h-3.9c-.8,0-1.5,0-2.4,0h0s0,0,0,0c-.1,0-.1.2-.2.3,0,0,0,.2.1.3h.4c1.2.2,1.2.4,1.2,2.6v7.4c0,2.2-.1,2.4-1.2,2.5h-.7c0,0,0,0,0,0,0,0-.1.3,0,.4,0,.1,0,.2.2.3h0s0,0,0,0c1.2,0,1.9,0,2.8,0h1.9c1.8,0,3.7,0,5.5,0h0s0,0,0,0c.3-.6.8-2.2.9-2.9h0s0,0,0,0c0-.1-.1-.2-.3-.2h0ZM372.3,45.8h0c-.5,0-1-.2-1.4-.6-1.4-1.2-2.6-2.9-4.1-5.5-.1-.2-.2-.3-.1-.4.6-.3,2.6-1.2,2.6-3.5s-1-2.5-1.7-3c-1-.6-2.3-.6-3.5-.6-1.9,0-3.3,0-4.6.2h0c0,0-.2.2-.2.3,0,.1,0,.3.1.4h.7c.8.2.8.4.8,2.4v7.4c0,2.2,0,2.4-1.2,2.5h-.5c0,0,0,0,0,0,0,.1-.1.3,0,.4,0,.1,0,.2.1.2h0s0,0,0,0c1,0,1.8,0,2.6,0s1.6,0,2.4,0h0s0,0,0,0c0,0,.1-.1.2-.3,0-.2,0-.3,0-.4h0s-.5,0-.5,0c-1.1-.2-1.2-.4-1.2-2.5v-2.6c0-.4,0-.4.9-.4s1.1.2,1.4.6c.3.5.7,1,1,1.6.4.6.7,1.1,1,1.5,1.4,2,2.5,2.6,4.3,2.6s.7,0,.9-.1h0c0,0,.1-.2,0-.3,0,0,0-.2-.1-.2h0ZM362.7,33.6c0-.5,0-.6,1.3-.6,2.4,0,3.2,1.7,3.2,3.1s-.3,2-1,2.5c-.6.5-1.4.5-2.1.5-1,0-1.3,0-1.4,0,0,0,0-.3,0-.6v-4.8h0ZM388.5,40.4h0c-.7,0-1.4,0-2.2,0-1.3,0-2.4,0-2.9,0h0s0,0,0,0c-.1,0-.2.2-.2.3,0,.1,0,.3.2.3h.9c1.2.2,1.3.3,1.3,2v.8c0,.6,0,1-.2,1.1-.2.3-.9.6-2.2.6-3.8,0-6.1-2.7-6.1-7s3.1-5.9,5.7-5.9,3.6.9,4.1,2.9h0s0,0,0,0c.1.1.3.1.4,0,.1,0,.2,0,.2-.2h0s0,0,0,0c-.2-1.4-.3-2.4-.3-3h0c0,0,0,0,0,0-.2,0-.8,0-1.1-.2h-.1c-.2,0-1.4-.3-2.6-.3-2.9,0-5,.8-6.6,2.4-1.2,1.3-1.9,3-1.9,4.9s.7,3.5,1.9,4.7c1.5,1.5,3.7,2.3,6.3,2.3s2.8-.3,3.7-.5c.3,0,.7-.2,1-.2h0c0,0,0-.1,0-.2,0,0,0-.1,0-.2h0c-.3-.1-.4-.6-.4-1.4v-1.2c0-1.1,0-1.6.8-1.7h.4s0,0,0,0c0,0,.1-.2.1-.4,0-.1,0-.2-.2-.3h0ZM403.9,43c-.1,0-.3,0-.4,0h0c-.5,1-1.1,1.8-1.4,2-.5.2-1.1.3-2.6.3s-2.2-.2-2.4-.4c-.3-.3-.4-1-.4-2.1v-2.9c0-.5,0-.5.6-.5h1.2c.7,0,1.3,0,1.6.1.4,0,.5.4.6.7l.2.8h0c0,.1.3.2.4.1.1,0,.2,0,.3-.1h0c0-.2,0-.5,0-.8,0-.4,0-.8,0-1.2s0-.9,0-1.3c0-.3,0-.6,0-.8h0s0,0,0,0c0,0-.2-.1-.3-.1-.1,0-.3,0-.4.1l-.2.9c-.1.5-.2.6-.4.7-.2,0-.8.1-1.7.1h-1.2q-.6,0-.6-.5v-4.1q0-.7.5-.7h1.5c.9,0,1.6,0,2,.1,1,.2,1.2.9,1.5,1.8h0c0,.1,0,.1,0,.1,0,0,.2.1.3.1.1,0,.3,0,.3-.2h0s0-.3,0-.3c0-.9-.2-2.2-.3-2.5h0c0,0,0,0,0,0-.2,0-1.5,0-2.8,0h-3.9c-.8,0-1.5,0-2.4,0h0s0,0,0,0c-.1,0-.1.2-.2.3,0,0,0,.2.1.3h.4c1.2.2,1.2.4,1.2,2.6v7.4c0,2.2-.1,2.4-1.2,2.5h-.7c0,0,0,0,0,0,0,0-.1.3,0,.4,0,.1,0,.2.2.3h0s0,0,0,0c1.2,0,1.9,0,2.8,0h1.9c1.8,0,3.7,0,5.5,0h0s0,0,0,0c.3-.6.8-2.2.9-2.9h0s0,0,0,0c0-.1-.1-.2-.3-.2h0ZM423,32.3h0s0,0,0,0c-.7,0-1.2,0-2.1,0s-1.4,0-2.4,0h0s0,0,0,0c0,0-.2.1-.2.3,0,.1,0,.3.1.4h0s.4,0,.4,0c.7,0,1.1.2,1.2.4.3.4.4,1.9.4,4.2v4.4c0,.3,0,.6,0,.8-.8-.8-1.6-1.7-2.5-2.8-.3-.3-.5-.6-.8-.9l-2-2.2h0c-2-2.3-3.2-3.8-3.5-4.5h0c0,0,0,0,0,0-.2,0-.6,0-.9,0s-1.5,0-2.3,0h0s0,0,0,0c0,0-.1.1-.2.3,0,.1,0,.3.1.4h0s.4,0,.4,0c.6,0,1,.2,1.2.5.4.4.4.8.4,1.4v6.1c0,1.1,0,3.3-.3,4,0,.2-.4.3-.8.4h-.6c0,0,0,0,0,0,0,0-.1.2-.1.3,0,.1,0,.2.2.3h0s0,0,0,0c.7,0,1.3,0,2.1,0s1.4,0,2.4,0h0s0,0,0,0c0,0,.1-.1.1-.3,0-.1,0-.3,0-.4h0s-.7,0-.7,0c-.5,0-.9-.2-1-.4-.2-.4-.4-1.9-.4-4.2v-4.5c0-.4,0-.9,0-1.2.3.3.9,1.1,1.5,1.7.3.4.7.8.9,1l4.8,5.4c1.6,1.8,2.4,2.7,2.6,3.1h0s0,0,0,0c.2,0,.4-.1.5-.3h0s0,0,0,0c0-.2,0-1.1,0-3.6v-5.2c0-1.1,0-3.3.3-3.9,0-.1.4-.3,1.1-.4h.3s0,0,0,0c0,0,.1-.2.1-.4,0-.1,0-.2-.2-.3h0Z"/>
  </g>
  <g id="Emblem_positiv" data-name="Emblem positiv">
    <g id="Emblem_positiv-2" data-name="Emblem positiv">
      <path class="cls-2" d="M56,61.3c-.3-.4-.8-.3-.8-.3,0-.3,0-.3,0-.6,0,0,.3,0,.3-.2,0-.2-.3-.2-.3-.2,0-.4-.1-.6-.2-.9.5,0,.9.1,1.1.5.2.4.2,1.1,0,1.6M55.3,62.9c-.3.2-.6.2-.7.2h0s.3-.2.5-.6c.2-.4,0-1,0-1,0,0,.5,0,.6.3,0,.4-.2.9-.4,1.1M52.9,61.6c0-.6.2-.8.2-.8,0,0,0-.2.3-.2.2,0,.4-.1.4-.3,0-.2-.5-.1-.5-.1,0,0,.1-.7-.2-1.5.2-.1.5-.2.9,0,.6.4.8,2.2.6,3.1-.5-.7-1.3-.5-1.6-.2M52.5,60.4s-.2-.2-.5-.2c-.4,0-.4.3-.2.4.3,0,.5.2.6.4,0,.4-.1,1-.1,1-.4-.5-1-.5-1.4,0-.3-1.1,0-1.5.5-2.2.4-.7.4-.6.5-.7.1,0,.4,0,.4,0,0,0,.3.2.3.8,0,.6,0,.8,0,.8M48.3,61.8c-.4-.4-1-.4-1.4,0,0,0-.1-.6-.1-1,.1-.2.3-.3.6-.4.3,0,.2-.4-.2-.4-.3,0-.5.2-.5.2,0,0,0-.2,0-.8,0-.6.3-.8.3-.8,0,0,.2,0,.4,0,.1,0,.1,0,.5.7.5.7.8,1.1.5,2.2M44.7,61.8c-.2-.9,0-2.7.6-3.1.4-.1.7-.1.9,0-.4.8-.2,1.5-.2,1.5,0,0-.5,0-.5.1,0,.2.2.3.4.3.2,0,.3.2.3.2,0,0,0,.2.2.8-.3-.3-1-.5-1.6.2M44.6,63.1c-.1,0-.4,0-.7-.2-.3-.2-.5-.7-.4-1.1,0-.3.6-.3.6-.3,0,0,0,.6,0,1,.1.3.4.5.5.5h0ZM43.3,59.7c.2-.4.5-.5,1.1-.5-.1.3-.2.5-.2.9,0,0-.3,0-.3.2,0,.2.2.2.3.2,0,.2,0,.3,0,.6,0,0-.5-.1-.8.3-.2-.5-.1-1.2,0-1.6M53,63.7h0c0,0,.3-.3.3-.8,0-.5-.2-.8-.2-.8,0,0,.2-.3.6-.2.4.1.4.5.4.6,0,.8-.9,1.2-1.1,1.2M52.1,63.7c-.4-.1-.9-.6-1-.8-.1-.2,0-.6.2-.7.4-.2.6.2.6.4,0,.9.2,1.2.2,1.2h0ZM48.1,62.9c-.1.3-.6.7-1,.8h0s.3-.3.2-1.2c0-.2.2-.6.6-.4.3.1.3.5.2.7M45.2,62.5c0-.1,0-.4.4-.6.4-.1.6.2.6.2,0,0-.2.3-.2.8,0,.5.3.8.3.8h0c-.2,0-1.1-.3-1.1-1.1M40.2,45.5c.2-.1.5-.4.6-.5.1-.1.2-.2.2-.2,0,0,.2,0,.3,0,0,0,0,0,0,0,0,0-.2.4-.5.9-.3.4-.5.6-.5.6,0,0-.2,0-.3-.2-.1-.2,0-.4.2-.5M40.3,41.8s1.2-.6,1.7-1.2c.5-.6.8-1.5.9-1.6,0-.1.3-.2.2,0,0,.2-.6,1.9-1,2.4-.4.5-1.4,1.1-1.5,1.1-.3-.2-.4-.6-.3-.7M41.1,39.6c0-.2,0-.8.2-1,0,0,.1,0,.2-.1,0,0,0,.2,0,.2,0,.1.2,1.3.2,1.3,0,0,0,.1-.2.2-.2.1-.3,0-.3,0,0,0,0-.4,0-.6M41.8,32.8c0,0,.4.1.6.1.1,0,.2-.2.2-.2,0-.1,0,0-.5-.4-.2-.1-.1-.4,0-.6,0-.1.3,0,.4.1.1,0,.3.2.4.2,0,0,.1-.3.1-.4,0-.1-.4-.2-.5-.5,0-.2,0-.3.1-.5,0,0,.4-.2.5-.3.1,0,.9.2,1,.3.1.1.2.3.3.7.2.3.4.6.5.7.1.2-.4.4-.5.3-.3-.1-.5-.3-.7-.5-.2-.2-.3.1-.2.3,0,.1.2.3.5.5.2.2.2.2.1.3,0,.2-.2.5-.2.7,0,.2-.1.2-.2.2-1-.2-1.5,0-1.5.2,0,.2.4,0,.8.1.6,0,.5.1.6.2.3.3.3.9.2,1,0,.1-.2.2-.5.4-.3.2-.3.3-.3.6,0,.3.2.3.3,0,.1-.2.6-.6.8-.6.2,0,.4.2.4.2,0,0,0,0-.1.2-.4.4-.5.9-.4.9,0,0,.1-.1.4-.5.3-.4.5-.4.5-.4,0,0,.2,0,.4.1.2,0,.4.2.4.2,0,0-.2,1.5,0,1.5.2,0,.3-1.4.5-1.4.2,0,.3.4.4.4.1,0,0-.6.1-.6.4-.1.6-.3.8-.5.2-.2.4,0,.4,0,0,0,0,.7,0,.7-.1,0,0-.2-.3-.1-.2.1.2.7.3.8.1.2.1.3-.2.2-.3-.1-.3-.6-.4-.4-.1.3,0,.7.3.8.2.2.4.2.4.2,0,0,.1.3,0,.5-.3.2-.6.3-.6.3,0,0-.5-.6-.6-1.2-.1,0-.2,0-.2.2,0,.4,0,1.1-.1,1.2-.1,0-.5,0-.7,0-.2,0-.3-.1-.3-.3,0-.2,0-.4,0-.4-.1,0-.2.1-.3.3,0,.2-.1.2-.3.2-.1,0-.3,0-.5-.2-.3-.2.2-1.2.3-1.4.1-.2,0-.3-.2,0-.2.2-.5.7-.5.9,0,.2-.2.2-.4,0-.2-.2-.5-.2-.6-.5-.1-.3,0-.4,0-.6,0-.2,0-.2,0-.2s-.2.2-.2.2c0,0-.1,0-.2,0-.3-.4-.3-1.1-.3-1.3,0-.2.4-.3.6-.4.2,0,.2-.4,0-.4s-.3,0-.6,0c-.3,0-.3-.7-.4-1.3,0-.6,0-1,.2-1.1M41.4,28.3c0-.3.1-.7.2-.8,0-.1,0,0,.3.4.2.3.5.5.8.6.4.1.8,0,1.5,0,.8,0,1.1.5,1.4.8.4.4.9.7.8.7-.1,0-.5,0-1-.4-.3-.3-.6-.4-.7-.3-.1.2.8.9.7,1,0,.1-.6-.4-.7-.3,0,0,0,.1,0,.2,0,0,.3.4.2.5-.1.1-.3-.2-.4-.4-.2-.2-.4-.3-.6-.3s-.9,0-1.5-.4c-.6-.4-.7-1-.7-1.3M47.1,28.2c.6-.2,1.1.3,1.2.5,0,.2-.2.2-.4,0-.4-.2-.8-.1-1.1.5,0,.1-.2.1-.3,0-.1-.2,0-1,.6-1.1M48.4,29.7c0,.2-.2.2-.3.2-.3-.2-.6,0-.7.3,0,.2-.2.2-.3.1-.1-.2,0-.8.4-1,.4-.2.8.1.9.4M49.6,27.9c.4,0,.9.2,1,.8,0,.2-.2.2-.3,0-.1-.2-.4-.3-.7-.3s-.5.1-.7.3c0,.1-.3.1-.3,0,0-.5.6-.8,1-.8M51.7,29.3c.5.2.5.8.4,1-.2,0-.3,0-.3-.1,0-.3-.4-.4-.7-.3-.1,0-.3,0-.3-.2,0-.2.5-.5.9-.4M52.2,28.2c.6.2.7.9.6,1.1-.2,0-.3,0-.3,0-.2-.6-.7-.6-1.1-.5-.2,0-.3,0-.4,0,0-.3.5-.7,1.2-.5M53.7,29.3c.3-.3.7-.7,1.4-.8.8,0,1.1,0,1.5,0,.3,0,.6-.3.8-.6.2-.4.2-.5.3-.4,0,0,.2.5.2.8,0,.3-.1.9-.7,1.3-.6.4-1.3.4-1.5.4s-.5,0-.6.3c-.1.2-.3.5-.4.4-.1-.1.1-.4.2-.5,0,0,0-.2,0-.2-.1-.1-.6.4-.7.3,0-.1.8-.8.7-1-.1-.2-.4,0-.7.3-.5.5-.9.5-1,.4,0,0,.5-.4.8-.7M57.6,33.9c0,.6,0,1.3-.4,1.3-.2,0-.4,0-.6,0-.2,0-.2.3,0,.4.2,0,.6.1.6.4,0,.2,0,.9-.3,1.3,0,.1-.2,0-.2,0,0,0-.1-.2-.2-.2s-.1,0,0,.2c0,.2.2.3,0,.6-.1.3-.4.3-.6.5-.2.2-.3.2-.4,0,0-.2-.3-.7-.5-.9-.2-.2-.4-.1-.2,0,.1.2.6,1.2.3,1.4-.3.2-.4.2-.5.2-.2,0-.3,0-.3-.2,0-.2-.2-.3-.3-.3,0,0,0,.3,0,.4,0,.2-.1.3-.3.3-.3,0-.6,0-.7,0-.2,0,0-.8-.1-1.2,0-.2,0-.3-.2-.2,0,.6-.6,1.2-.6,1.2,0,0-.3,0-.6-.3-.2-.2,0-.5,0-.5,0,0,.2,0,.4-.2.2-.2.4-.5.3-.8-.1-.3-.2.2-.4.4-.3.1-.3,0-.2-.2.1-.2.4-.7.3-.8-.2-.1-.1,0-.3.1-.1,0,0-.7,0-.7,0,0,.2-.2.4,0,.2.2.4.4.8.5.1,0,0,.6.1.6.1,0,.2-.4.4-.4.2,0,.3,1.5.5,1.4.2,0,0-1.5,0-1.5,0,0,.2-.1.4-.2.2,0,.4-.1.4-.1,0,0,.2,0,.5.4.2.3.3.5.4.5.1,0,0-.5-.4-.9-.2-.2-.1-.2-.1-.2,0,0,.2-.3.4-.2.2,0,.6.4.8.6.2.3.3.2.3,0,0-.3,0-.3-.3-.6-.3-.2-.4-.3-.5-.4,0,0,0-.7.2-1,0,0,0-.1.6-.2.4,0,.8,0,.8-.1,0-.1-.5-.4-1.5-.2-.1,0-.2,0-.2-.2,0-.2-.1-.5-.2-.7,0-.1,0-.2.1-.3.3-.2.4-.4.5-.5,0-.1,0-.5-.2-.3-.2.2-.4.4-.7.5-.2,0-.6-.1-.5-.3,0,0,.3-.3.5-.7.2-.3.2-.5.3-.7.1-.1.9-.3,1-.3.2,0,.5.2.5.3,0,.2.2.3.1.5-.1.2-.5.3-.5.5,0,0,0,.4.1.4,0,0,.3-.1.4-.2.1,0,.3-.3.4-.1.1.2.2.5,0,.6-.6.3-.5.3-.5.4s0,.2.2.2c.2,0,.5-.2.6-.1.1,0,.2.5.2,1.1M57.8,38.5s.1,0,.2.1c.1.3.2.8.2,1,0,.3,0,.6,0,.6,0,0-.1,0-.3,0-.2-.1-.2-.2-.2-.2,0,0,.2-1.1.2-1.3,0,0,0-.2,0-.2M59,41.8c0,.1,0,.6-.3.7-.2,0-1.1-.6-1.5-1.1-.4-.5-1-2.2-1-2.4,0-.2.2-.2.2,0,0,.1.5,1,.9,1.6.5.6,1.7,1.2,1.7,1.2M59,45.5c.2.1.3.3.2.5-.1.2-.3.2-.3.2,0,0-.2-.2-.5-.6-.3-.4-.5-.9-.5-.9,0,0,0,0,0,0,0,0,.3,0,.3,0,0,0,.1.1.2.2.1.1.4.4.6.5M55.9,58.6c-.1,0-.3.2-.4,0,1.6-4.8,2.3-11.9,2.3-12.7,0,0,0,0,0,0,.1,0,.4.5.6.7.2.2-.9,8.5-2.6,11.9M52.4,57.8c-.5.5-.5.3-1.2.8-.6.5-.6,1-.8,1,0,0-.1-.7.2-1.3.4-.6,1.1-1,1.4-1.3.3-.3.5-.5.5-.8,0-.3.2,0,.2,0,0,0,.2,1.1-.3,1.6M50.1,58.2c0-.1,0-.3,0-.8,0-.5.2-.6.4-.7.2-.1.7-.4,1-.9.5-.8.4-1.3.4-1.3h0s.3.2.2.8c0,.7-.2,1.3-1,1.8-.8.6-1.1,1-1.1,1,0,0,0,.1,0,0M49.6,55.9c-.5,0-.9-.4-1-.8,0-.4,0-.8.2-1.1.2-.4.5-.7.5-.7,0,0,0,.2,0,.5,0,.5-.2.9-.3,1.1,0,.1.1.2.2.2.2,0,.2-.6.4-.6.1.6-.1.7-.2.8,0,0,.1.1.2,0,.4-.1.5-.5.4-.8,0-.4-.3-.5-.4-.8,0-.3.1-.5.1-.5,0,0,.3.2.5.6.2.4.3.9.2,1.2,0,.5-.5.8-1,.8M49.1,58.2c0,.1,0,0,0,0,0,0-.2-.4-1.1-1-.7-.5-.9-1.1-1-1.8,0-.7.2-.9.2-.9h0s0,.5.4,1.3c.4.6.9.8,1,.9.2.1.4.3.4.7,0,.5,0,.6,0,.8M48.9,59.6c-.2,0-.2-.5-.8-1-.7-.5-.7-.3-1.2-.8-.5-.5-.3-1.5-.3-1.6,0,0,.2-.3.2,0s.3.5.5.8c.3.3,1,.7,1.4,1.3.4.6.2,1.3.2,1.3M42.1,43.5c-.4.4-1.3.7-1.3.7,0,0-.2,0-.3,0,0-.2,0-.7,0-.7,0,0,1.2-.5,1.7-1.1.4-.5.5-.8.5-1,0-.1.2-.3.2-.1,0,.2,0,1.6-.8,2.3M43.3,42.7s.2-.1.2,0c-.4,5.9,1.3,14.8,1.3,15,0,.4-.3,1-.4.8-1.3-3-2.2-12.1-2.2-13.3,0-.5.6-1.1,1.1-2.5M47.2,32.7c0-.2.3-.4.6-.4.3,0,.6,0,.8,0,0,0,.2.2,0,.2-.2,0-.3,0-.5,0-.3,0-.7.3-.8,0M46.5,32.7c.9.3,1.2,1.3.9,2.2-.3.9-1.2,1.3-2.1,1-.9-.3-1.3-1.3-1-2.2.3-.9,1.3-1.4,2.1-1.1M47.2,31.2c0,0-.6-.2-1.4.1-.4.1-.6,0-.7,0-.2-.4.9-.6,1.1-.6.7,0,.9.2,1,.3,0,0,0,.1,0,.1M47.9,31.7c.1,0,0,.2-.1.2-.3,0-.4,0-1,.1-.6.2-.9,0-.9,0,0,0-.2-.3,0-.3.5,0,.8-.2,1.2-.2.4,0,.7,0,.8.2M48.8,30.7c0,.2,0,.3-.2.2-.1-.3-.7,0-.5.3,0,0-.1.2-.3,0-.2-.2-.3-.6,0-.9.3-.2.8,0,.8.3M50.2,29.7c-.1,0-.3-.2-.5-.2s-.4.1-.5.2c-.2.1-.2,0-.3,0,0-.3.4-.7.9-.7s.8.4.9.7c0,0-.2.2-.3,0M51.4,31.3c-.1.1-.3,0-.3,0,.2-.4-.3-.6-.5-.3,0,0-.2,0-.2-.2,0-.3.5-.5.8-.3.4.3.3.7,0,.9M52.2,31.5c.4,0,.7.2,1.2.2.2,0,0,.3,0,.3,0,0-.3.2-.9,0-.5-.2-.6-.2-1-.1-.2,0-.2-.1-.1-.2.1,0,.5-.2.8-.2M54.1,31.4c0,0-.3.1-.7,0-.8-.3-1.3-.1-1.4-.1,0,0-.1,0,0-.1,0,0,.3-.4,1-.3.3,0,1.4.2,1.1.6M52.7,32.7c.9-.3,1.8.2,2.1,1.1.3.9,0,1.9-1,2.2-.9.3-1.8-.2-2.1-1-.3-.9,0-1.9.9-2.2M51.2,32.6c-.2,0-.3,0-.5,0-.2,0,0-.2,0-.2.2,0,.5-.2.8,0,.2,0,.6.2.6.4,0,.2-.5,0-.8,0M54.3,46.7c0-.2,0-.5.1-.5.2.1.4.4.6.7.2.5.3,1.2,0,1.4-.8.3-1.4-.6-1.5-1.3-.1-.5.2-.6.2-.6,0,0,.2.4.3.6.2.3.4.6.6.5.2,0-.1-.4-.2-.9M50.8,45.6c0-.2.2-.3.2-.3,0,0,.1.7.3,1.1.2.4.6.9.8.8.2,0,0-.3-.2-.8-.2-.6,0-1.1,0-1.1,0,0,.1,0,.2.2.4,1.1.5,1,.8,1.6.3.5.1,1.1-.5,1.2-1.5.3-1.7-2.2-1.6-2.6M50.4,51.4s.5,1.2.8,1.1c.2,0-.4-.7-.4-1.3,0-.1.2,0,.2,0,0,0,.2.2.4.4.3.3,1.2,1.8.3,2.1-1,.4-1.6-1.1-1.6-1.6,0-.5.3-.5.3-.5M48.3,48.9c0-1.5.6-2,.6-2,0,0,.1.1,0,.3,0,.1-.2.8-.2,1.2,0,.4.1.5.2.4.1,0-.1-.5.2-.5.2,0,.3.5.3,1.1,0,.6-.1.8-.1.8.2.2.5-.2.5-.7,0-.5,0-.8.1-.8s.1.2.1.5c0,.2,0,.4,0,.5.1,0,.3-.4.3-.9s-.1-.7-.1-.9c0-.1,0-.3,0-.3,0,0,.4,0,.5,1.5,0,1-.4,2.1-1.3,2.1s-1.3-1.2-1.3-2.1M47.8,51.4c.2-.2.4-.4.4-.4,0,0,.2,0,.2,0,0,.7-.6,1.3-.4,1.3.3.1.8-1.1.8-1.1,0,0,.3,0,.3.5,0,.5-.6,2-1.6,1.6-.9-.4,0-1.9.3-2.1M48.4,41.2c.1-.2.3,0,.3,0,0,0-.1.5,0,1.1,0,.4.1.6.3.6.2,0,.2-.3.2-.6,0-.1.2-.2.2,0,0,.4-.1,1.1,0,1.8,0,.3.4.6.5.5,0,0,0-.2,0-.3,0-.1,0-.2,0-.3-.2-.8,0-1.9.2-2.3,0-.1.2.1.2.4,0,.2,0,.8,0,1.4,0,.3.3.1.4-.3.2-.7,0-1.8,0-1.8,0,0,.2-.1.3,0,.1.2.4,1.9.2,3-.2.7-.5,1.4-1.4,1.4h0c-.9,0-1.2-.7-1.4-1.4-.3-1.1,0-2.7.2-3M49.1,32.6c0,0,0,0,0,.2-.2.3-.6.7-.9.5-.1,0,0-.3.3-.5.1,0,.4-.3.6-.2M50.2,30.6c0,.3-.1.4-.2.4,0,0-.1,0-.1,0,0,0,0-.5-.3-.5s-.3.4-.3.5c0,0,0,.1-.1,0,0,0-.1-.1-.2-.4,0-.3.2-.6.6-.6s.6.4.6.6M50.1,32.8c0,0,0-.1,0-.2.1,0,.4.1.6.2.4.2.4.4.3.5-.3.2-.6-.2-.9-.5M49.1,33.5c0,0,.1-.7.5-.7s.5.7.5.7c0,.1,0,.2-.2.2-.2,0,0-.5-.3-.5s0,.4-.3.5c-.1,0-.2,0-.2-.2M49.3,35.2c0,.3,0,.9,0,2s.2,1.2.2,1.2.2-.5.2-1.2c0-1,0-1.6,0-2,0,0,.4,0,.7.3.4.3.2,1.6,0,2.2-.1.5-.5,1.6-1.1,2-.6-.4-1-1.5-1.1-2-.1-.6-.3-1.9,0-2.2.4-.3.7-.3.7-.3M46.9,48.2c-.6-.1-.8-.7-.5-1.2.3-.5.4-.5.8-1.6,0-.2.2-.2.2-.2,0,0,.1.5,0,1.1-.1.5-.4.7-.2.8.2,0,.6-.4.8-.8.2-.4.3-1.1.3-1.1,0,0,.2,0,.2.3,0,.4,0,2.9-1.6,2.6M44.7,47.6c.2,0,.4-.3.6-.5.1-.2.3-.6.3-.6,0,0,.3.1.2.6-.1.6-.7,1.6-1.5,1.3-.4-.2-.3-.9,0-1.4.2-.3.4-.6.6-.7.1,0,.1.3.1.5,0,.5-.4.8-.2.9M46.5,50.8c-.6.6-1.1.8-1.5.5-.6-.4-.4-1,.5-2,.5-.5.8-.8.8-.8,0,0,0,0,.1,0,0,0-.2.8-.3,1-.1.2-.3.5-.3.6,0,0,.1.1.2,0,0,0,.3-.5.5-.6.1-.1.4-.6.6-.6,0,0,0,0,0,0,.1.2,0,1.2-.6,1.9M46,56.9c0,.4-.1.7-.3.7s-.3-.3-.3-.7.2-1.9.2-2.2h0s.3,1.8.3,2.2M45.2,53.8c-.3-.3-.2-.8.1-1.2.3-.4.7-.6.8-.7.2-.1.2,0,.2,0,0,0-.7,1.1-.5,1.2.2.2.8-.8.8-.8,0,0,0,.1,0,.3,0,0-.2.5-.5.8-.3.4-.7.6-1,.3M52.8,50.8c-.6-.7-.7-1.7-.6-1.9,0,0,0,0,0,0,.2,0,.4.5.6.6.2.1.4.6.5.6,0,0,.2,0,.2,0,0,0-.2-.4-.3-.6-.1-.2-.3-1-.3-1,0,0,.1,0,.1,0,0,0,.3.3.8.8.9.9,1.1,1.6.5,2-.3.2-.9,0-1.5-.5M53.9,56.9c0,.4-.1.7-.3.7s-.3-.3-.3-.7.3-2.2.3-2.2h0c0,.3.2,1.7.2,2.2M53,53.5c-.3-.3-.4-.8-.4-.8,0-.2,0-.2,0-.3,0,0,.6,1,.8.8.2-.2-.5-1.2-.5-1.2,0,0,0,0,.2,0,0,0,.5.3.8.7.3.4.4.9.1,1.2-.3.3-.7,0-1-.3M56.3,41.2c0-.2.1,0,.2.1,0,.1.2.5.5,1,.5.6,1.7,1.1,1.7,1.1,0,0,0,.6,0,.7,0,.2-.3,0-.3,0,0,0-.8-.3-1.3-.7-.8-.7-.8-2.2-.8-2.3M57,45.2c0,1.2-.9,10.2-2.2,13.3,0,.1-.5-.4-.4-.8,0-.1,1.7-9.1,1.3-15,0,0,.2,0,.2,0,.6,1.4,1.2,2,1.1,2.5M55.1,39.6c0-.1.2,0,.3,0,.2.1,1,1.5.3,1.8-.7.3-1.3-1.1-1.4-1.5,0-.3.2-.3.2-.3,0,0,.5.9.7.8.2,0,0-.9,0-.9M54.2,41.8c0-.3,0-.5,0-.5,0,0,.3.3.3.3,0,0,0,.3.2.5.1.2.5.8.2,1-.3.2-.7,0-1.1-.6-.4-.7-.4-1.7-.3-1.8,0-.1.1,0,.2,0,0,.1.1.5.3,1.1.2.5.4.4.4.4,0,0,0-.1-.1-.4M53.4,43.6c-.1-.4-.1-.6-.1-.6,0,0,.1,0,.3.1.1.2.5.5,1,.9.4.3.5,1,0,1.3-.3.2-.9.2-1.5-.4-.6-.6-.8-1.6-.8-1.8,0-.2,0-.2,0-.2,0,0,.4.5.7.8.3.3.5.5.7.5.2,0-.2-.4-.3-.8M52,40.2s0,0,.2,0c.2.1.5.4.6.8.2.6,0,.9-.2,1-.4.2-1.4-.4-1.5-1.8,0-.2.2-.2.2-.2,0,0,.5,1.3,1,1.1.2,0-.2-1-.2-1M47,41.2c.5.2,1-1.1,1-1.1,0,0,.2,0,.2.2-.1,1.4-1.1,2-1.5,1.8-.2-.1-.5-.4-.2-1,.1-.4.4-.7.6-.8.1,0,.2,0,.2,0,0,0-.4.9-.2,1M45.5,44.4c.2,0,.4-.2.7-.5.3-.3.7-.8.7-.8,0,0,0,0,0,.2,0,.2-.2,1.2-.8,1.8-.6.6-1.2.7-1.5.4-.5-.4-.3-1.1,0-1.3.5-.3.8-.7,1-.9s.3-.1.3-.1c0,0,0,.2-.1.6-.1.4-.6.8-.3.8M45.3,41.8c.2-.5.3-.9.3-1.1,0-.1.1-.2.2,0,0,.1,0,1.1-.3,1.8-.4.7-.8.8-1.1.6-.3-.2,0-.8.2-1,.1-.2.2-.5.2-.5,0,0,.3-.4.3-.3,0,0,0,.3,0,.5,0,.3-.1.4-.1.4,0,0,.1,0,.4-.4M44.1,40.5c.2,0,.7-.8.7-.8,0,0,.2,0,.2.3,0,.4-.7,1.8-1.4,1.5-.7-.3.1-1.7.3-1.8,0,0,.2-.2.3,0,0,0-.3.8,0,.9M40.8,46.6c.2-.2.5-.7.6-.7.1,0,0,0,0,0,0,.7.7,7.9,2.3,12.7-.1,0-.3,0-.4,0-1.7-3.9-2.8-11.8-2.6-12M39.9,45.2c-.1.2-.4.4-.4.8,0,.4.5.6.6.8.3,2.7,1.6,10.1,2.9,12.4-.5.7-.5,1.3-.4,2.3-.2.1-.4.2-.6.4l-1.1.8c.6.2,1.2.5,1.8.9l4.6,3.4c.7-.4,1.5-.8,2.3-.8s1.6.4,2.5,1l2.2,1.5s1.1-.7,1.1-.7l-6.6-4.7c0-.2.2-.5.2-.9-.3-.6-.4-1.6-.3-1.7,0,0,.3.1.6.5.2.3.2.3.2.3,0,0,0,0,.2-.3.2-.3.5-.6.6-.5,0,.1,0,1.1-.3,1.7,0,.4.1.8.2.9l2.7,2,.6.5s2.1-1.7,2.8-2.2c.5-.4,1.1-.7,1.8-.9l-1.1-.8c-.2-.1-.4-.3-.6-.4.2-1.1.1-1.6-.4-2.3,1.3-2.4,2.7-9.7,2.9-12.4,0-.2.6-.5.6-.8,0-.4-.3-.6-.4-.8-.1-.2,0-.3-.1-.8s0-1.1,0-1.1c0,0,.4-.5.3-1.1,0-.6-.6-1-.6-1,0,0-.2-1.1-.4-2.6-.2-1.4-.5-2.5-.5-2.5,0,0,.2-.9,0-2-.1-1.3-.8-2.6-.8-3.1,0-.9.5-.8.6-2.2.2-1.2-.6-2.1-.6-2.1,0,0-.2,1-.7,1.3-.5.2-.7,0-1.3,0-.3,0-.7,0-1.3.4-1-.6-1.3-.5-2.2-.5-.9,0-.9,0-1.7-.2,0,0-.5-.1-.8-.1-.3,0-.7,0-.8.1-.7.2-.8.2-1.7.2-.9,0-1.2,0-2.2.5-.6-.3-1.1-.3-1.3-.4-.6,0-.8.1-1.3,0-.5-.2-.7-1.3-.7-1.3,0,0-.7.8-.6,2.1.2,1.5.6,1.4.6,2.2,0,.5-.7,1.7-.8,3.1,0,1,0,2,0,2,0,0-.3,1.1-.5,2.5-.2,1.4-.4,2.6-.4,2.6,0,0-.5.4-.6,1,0,.6.3,1.1.3,1.1,0,0,0,.6,0,1.1,0,.5,0,.7-.1.8M43,29.4c.8,0,1,.1,1.2.3,0,0,.1-.1,0-.2-.1-.2-.3-.4-.4-.4-.2,0-.5-.1-.7-.1-.4,0-.6,0-.9-.1-.2,0-.3-.1-.4-.3,0,0,0,.1,0,.2,0,0,.3.7,1.1.7M53.9,35.4c.6-.2.7-.9.5-1.5-.1-.2-.3-.3-.3-.2.2.5,0,1-.4,1.2-.5.2-1,0-1.2-.5,0-.2-.2,0,0,.4.3.6.9.8,1.4.6M55.1,29.8c.2-.2.4-.3,1.2-.3.8,0,1.1-.7,1.1-.7,0,0,0-.2,0-.2-.1.1-.2.2-.4.3-.3.1-.5.1-.9.1s-.5,0-.7.1c0,0-.2.3-.4.4,0,.1,0,.3,0,.2M32.9,66.9c1.1,1,2.2,2,3.5,2.8,0,0,.2-.1,2.2-1.6.8-.6,1.7-.9,2.7-.9s1.9.3,2.7.9l.9.7,1.6-1.2-4.5-3c-1.8-1.2-4.1-1.3-5.9,0l-3.3,2.4s0,0,0,0M45.4,35.4c.6.2,1.2,0,1.4-.6.2-.4,0-.6,0-.4-.2.5-.7.7-1.2.5-.5-.2-.6-.8-.4-1.2,0-.1-.2,0-.3.2-.3.6,0,1.3.5,1.5M50.3,73.6c-.5-.3-2-1.4-6.9-4.8-1.3-.9-3-.9-4.3,0-1.8,1.2-2,1.3-2,1.3,3.9,2.4,8.6,3.6,13.2,3.5M47.5,67.9l-1.8,1.3c1.2.9,4.8,3.5,5.9,4.3,2.2-.2,4.3-.6,6.3-1.4-.5-.3-1.9-1.3-6.2-4.3-1.3-.9-2.9-1-4.2,0M54.4,66.3l1.7,1.3c.6-.3,1.2-.4,1.8-.4,1,0,1.7.4,2.5,1,2,1.3,2.3,1.5,2.4,1.5,1.3-.8,2.4-1.8,3.5-2.8l-3.5-2.4c-1.8-1.3-4.1-1.3-5.9,0l-2.6,1.8ZM55.8,68.9l-.6.4c.3.2,3.3,2.4,3.5,2.6,1.2-.5,2.4-1.1,3.5-1.8-.2-.1-.9-.5-2.5-1.5-1.4-.8-2.6-.7-3.9.2M49.6,14.9c-19.1,0-34.7,15.6-34.7,34.7s15.6,34.7,34.7,34.7,34.7-15.6,34.7-34.7S68.8,14.9,49.6,14.9M49.6,85c-19.5,0-35.4-15.9-35.4-35.4S30.1,14.2,49.6,14.2s35.4,15.9,35.4,35.4-15.9,35.4-35.4,35.4M74.9,45.7c-.1-.9,0-1.5.2-1.7.2-.2.9-.4,1.4-.5,0,0,.1.2,0,.2-.5.2-1.5.8-1.3,2,.1.9.8,1.2,1.4,1.1.5,0,1-.2,1.4-1.1l.5-1.1c.3-.6.8-1.3,1.6-1.4,1-.1,1.9.5,2.1,1.9,0,.3,0,.7,0,1,0,.1,0,.3,0,.4-.2.1-.8.3-1.3.4,0,0-.1-.2,0-.3.5-.2,1.1-.6,1-1.6-.2-1-.9-1.2-1.4-1.1-.6,0-1,.7-1.2,1.1l-.4.9c-.3.7-.8,1.5-1.8,1.6-1.2.2-2.1-.6-2.3-2M75.4,35.9c-.3,0-.3,0-.1.3l.6,1.2c.1.3.2.3.4,0l1.3-1.3c.2-.2.4-.4.5-.5h0c0,0-.3,0-.7,0l-2,.2ZM75.5,38.2c.2-.2.2-.2,0-.5l-.7-1.4c-.1-.2-.2-.3-.4-.3l-1.2.2c-.5,0-.8.1-.9.2-.1,0-.1.1,0,.4v.3c.1,0,0,.2-.1,0-.1-.3-.2-.6-.5-1-.2-.3-.3-.7-.5-.9,0,0,.2-.2.2-.1l.2.3c.1.2.3.4.7.3.5,0,1.3,0,2.5-.2l3.1-.3c.4,0,.6,0,.8-.2.2.2.4.3.6.3,0,0,0,.1,0,.2-.4.3-.7.7-1.1,1l-3.2,3.2c-.7.7-.8.9-.6,1.3v.3c0,0,0,.1-.1.1-.2-.4-.3-.7-.5-1.2-.2-.5-.4-.8-.6-1.1,0,0,.2-.2.2-.1l.2.3c.1.2.2.3.3.3.1,0,.3-.2.4-.4l1.1-1.1ZM69.9,31.2c-.8.8-.9.9-.5,1.4l.2.3c0,0-.1.2-.2.2-.4-.5-.6-.7-.9-1-.3-.3-.6-.6-1-1.1,0,0,0-.2.2-.2l.3.3c.5.4.6.3,1.4-.4l3.5-3.3c.2-.2.2-.2,0-.5l-.4-.4c-.3-.3-.7-.7-1.1-.8-.3,0-.6,0-.9.2-.1,0-.2-.2-.1-.3.5-.2,1.1-.6,1.4-.8,0,0,.1.1.1.1-.2.3,0,.5.4.9l2.9,3.2c.4.4.5.5.8.4,0,0,.1.1.1.2-.4.2-1.1.7-1.3,1,0,0-.2-.1-.2-.2.2-.2.4-.5.4-.7,0-.3-.2-.7-.6-1.1l-.5-.6c-.2-.2-.2-.2-.5,0l-3.5,3.2ZM65.7,22.8c.6-1,.7-1.1.2-1.5l-.2-.2c0,0,0-.2.2-.2.4.3.7.5,1.1.7.4.2.7.4,1.1.7,0,0,0,.2-.1.2h-.2c-.6-.4-.7-.3-1.3.7l-2,3.2c-.6,1-.7,1.1-.2,1.5l.2.2c0,0,0,.2-.2.2-.4-.3-.7-.5-1.1-.7-.4-.2-.7-.4-1.2-.7,0,0,0-.2.1-.2h.2c.6.4.7.3,1.3-.7l2-3.2ZM57.1,25.1c-.9-.3-1.3-.7-1.5-.9,0-.3,0-1,.2-1.5,0,0,.2,0,.3,0,0,.6,0,1.7,1.3,2.1.9.3,1.4-.2,1.6-.8.1-.4.2-1-.4-1.7l-.8-.9c-.4-.5-.8-1.3-.5-2.1.3-1,1.3-1.5,2.6-1.1.3,0,.7.3.9.4.1,0,.3.1.3.2,0,.3,0,.9-.2,1.3,0,0-.2,0-.3,0,0-.5,0-1.3-1-1.6-1-.3-1.4.3-1.6.7-.2.6.2,1.2.5,1.5l.7.8c.5.6,1,1.4.7,2.4-.4,1.1-1.4,1.6-2.8,1.2M48.7,19.9c0,.2,0,.3,0,.4,0,0,.2,0,.7,0,.4,0,.8,0,1.1-.3.3-.2.5-.6.6-1.3,0-.8-.5-1.7-1.7-1.7-.7,0-.7,0-.7.3v2.5ZM47.8,18.3c0-1,0-1.2-.4-1.3h-.3c0-.1,0-.3,0-.3.6,0,1.3,0,2.4,0,.7,0,1.3,0,1.8.3.5.3.9.8.9,1.5,0,1-.8,1.6-1.4,1.8,0,0,0,.2,0,.3.8,1.4,1.4,2.3,2.1,2.9.2.2.4.3.7.3,0,0,0,.1,0,.1,0,0-.3,0-.5,0-.9,0-1.4-.3-2.2-1.4-.3-.4-.7-1.1-1-1.6-.2-.2-.3-.3-.8-.4-.5,0-.5,0-.5.2v1.3c0,1.1,0,1.2.6,1.3h.2c0,0,0,.3,0,.3-.5,0-.8,0-1.3,0-.4,0-.8,0-1.3,0,0,0,0-.2,0-.3h.3c.6,0,.6-.2.7-1.3v-3.8ZM39,20.2c-.3-1.1-.4-1.2-1-1.1h-.2c0,0-.1-.2,0-.2.4-.1.8-.2,1.2-.3l1.9-.6c.7-.2,1.3-.4,1.4-.4.1.2.4.9.6,1.3,0,0-.2.1-.2,0-.3-.4-.5-.8-1.1-.7-.2,0-.6,0-1,.2l-.7.2c-.3,0-.3.1-.2.5l.6,2c0,.3.1.3.4.2l.6-.2c.4-.1.7-.2.9-.3.1,0,.2-.2.1-.4v-.4c0,0,.2-.1.2,0,0,.2.2.7.3,1,.1.4.3.7.3,1,0,0-.2.1-.3,0l-.2-.4c0-.2-.2-.3-.4-.3-.2,0-.4,0-.8.2l-.6.2c-.3,0-.3.1-.3.4l.4,1.4c.2.5.3.9.5,1,.2,0,.4.1,1.3-.1.8-.2,1.1-.4,1.3-.5.2-.2.3-.6.4-1.2,0,0,.2,0,.3,0,0,.4,0,1.2,0,1.6-.9.3-1.8.5-2.7.8l-.9.3c-.4.1-.8.2-1.4.4,0,0-.1-.2,0-.2h.3c.6-.4.6-.5.3-1.6l-1.1-3.7ZM30.6,24.1c-.5-.4-.8-.5-1.2-.3h-.2c0,0-.2,0-.1-.2.3-.1.6-.3,1-.6.4-.3.7-.5,1.1-.7,0,0,.2.1.2.2h-.1c-.3.4-.4.5-.3.5,0,0,.5.5,1.2,1,1.1.8,2.1,1.6,3.2,2.3,0-.8-.3-1.9-.4-2.5-.1-.8-.3-2.1-.4-2.5,0-.2-.1-.3-.1-.4,0,0-.2,0-.5,0h-.2c0,0-.2,0-.1-.2.3-.1.6-.3,1-.6.3-.2.6-.4.9-.6,0,0,.2.1.2.2l-.3.2c-.2.2-.3.3-.3.6,0,.6.1,1.5.3,2.7l.2,1.4c.2,1.1.4,2.4.5,2.9,0,0,0,0,0,0,0,0,0,0-.2,0-.3-.3-.8-.7-1.2-.9l-4.1-2.9ZM27,28.1c-.8-.8-1-.9-1.4-.5l-.2.2c0,0-.2-.1-.2-.2.4-.4.6-.6,1-.9.3-.3.5-.6.9-1,0,0,.2,0,.2.2l-.2.2c-.4.5-.3.6.5,1.4l2.7,2.7c.8.8.9.9,1.4.5l.2-.2c0,0,.2.1.2.2-.4.4-.6.6-.9.9-.3.3-.6.6-.9,1,0,0-.2,0-.2-.2l.2-.2c.4-.5.3-.6-.5-1.4l-2.7-2.7ZM26.9,33.7c.3.2,1.4.8,1.6.9,0,0,0,.1,0,.2-.2,0-.7.1-2.1.4l-3.7.8c-.4,0-1.5.3-1.9.4h0c0,.1.3.2.6.4l2,1.1c.4.2,1.7.9,2,.9.1,0,.3-.2.4-.4l.2-.3c.1,0,.2,0,.2.1-.3.4-.4.7-.6,1.1-.2.4-.3.6-.5,1,0,0-.2,0-.2-.1v-.3c.2-.2.2-.4.2-.5-.3-.3-1.4-.9-1.9-1.2l-2.7-1.5c-.3-.1-.5-.2-.8-.2-.2,0-.4.2-.5.5h-.1c0,.2-.2,0-.2,0,.2-.4.5-.9.6-1,0-.1.2-.3.2-.4.6,0,2.4-.3,2.9-.5l1.5-.3c1.1-.2,1.9-.4,2.5-.6h0c0,0-.2-.2-.4-.3l-2-1.1c-.4-.2-1.7-.9-2-.9-.1,0-.3.1-.5.5h-.1c0,.2-.2,0-.2,0,.3-.4.4-.7.6-1.1.2-.4.3-.6.5-1,0,0,.2,0,.2.1h0c-.1.5-.1.7,0,.8.2.3,1.4,1,1.8,1.2l2.2,1.2ZM20.3,42c-.7-.1-1.9-.3-2.2-.2-.1,0-.2.2-.3.5v.3c-.2,0-.3,0-.3,0,0-.4.2-.8.2-1.2,0-.4.1-.7.2-1.1,0,0,.2,0,.3,0v.3c0,.3,0,.5.1.6.3.2,1.5.4,2.1.5l1.2.2c.9.2,1.9.5,2.4,1.2.4.5.6,1.4.4,2.1-.1.7-.4,1.4-.9,1.9-.6.5-1.4.6-2.6.4l-2.5-.4c-1.1-.2-1.3-.2-1.4.4v.3c-.1,0-.3,0-.3,0,.1-.5.2-.9.3-1.3,0-.4.1-.8.2-1.3,0,0,.2,0,.3,0v.3c0,.6.1.7,1.2.9l2.3.4c1.7.3,2.9,0,3.2-1.7.3-1.5-.8-2.3-2.4-2.6l-1.2-.2Z"/>
      <path class="cls-2" d="M22.4,58.6c-.3.1-.3.1,0,.6.4,1,.9,1.4,1.9,1.1,1-.4,1.1-1.2.8-2,0-.2-.2-.4-.2-.4,0,0-.1-.1-.3,0l-2,.7ZM20,59.4c-.4.1-.9.3-1,.6-.2.3,0,.6,0,.9.3.9,1,1.4,2,1.1.8-.3,1.6-1,1-2.6-.2-.5-.3-.6-.5-.5l-1.5.5ZM23.4,57.3c.7-.3.9-.4.8-.8v-.3c0-.1,0-.1.2,0,.2.5.5,1.2.9,2.1.2.6.4,1.2.3,1.8,0,.5-.3,1-1,1.2-.7.3-1.2,0-1.7-.5,0,0-.1.1,0,.2,0,.6-.1,1.6-1.2,1.9-1.2.4-2.3-.1-2.9-1.9-.1-.3-.3-.8-.4-1.2-.2-.4-.3-.8-.5-1.1,0,0,.2-.1.2-.1v.2c.4.5.5.5,1.5,0l3.8-1.4Z"/>
      <path class="cls-2" d="M26.5,64.6c.9-.7,1-.8.7-1.3h0c0-.2.2-.3.2-.3.3.4.5.7.7,1l1.2,1.6c.4.5.8,1,.9,1.1-.1.2-.7.7-1,1,0,0-.2-.1-.2-.2.3-.4.5-.7.3-1.3,0-.2-.3-.5-.6-.9l-.5-.6c-.2-.3-.2-.2-.5,0l-1.7,1.3c-.2.2-.2.2,0,.5l.4.5c.3.4.5.6.6.7.1,0,.2,0,.5,0l.4-.2c0,0,.2.1.2.2-.2.2-.6.4-.9.6-.3.2-.6.5-.8.6,0,0-.2-.1-.2-.2l.3-.3c.1-.1.2-.3.1-.5,0-.1-.2-.4-.4-.7l-.4-.5c-.2-.3-.2-.3-.4-.1l-1.2.9c-.5.3-.7.6-.8.8,0,.2,0,.4.6,1.2.5.7.7.9.9,1,.2,0,.7,0,1.3,0,0,0,.2.2,0,.3-.3.2-1.2.4-1.5.5-.6-.8-1.1-1.5-1.7-2.3l-.6-.8c-.3-.4-.5-.6-.9-1.1,0,0,.1-.2.2-.2l.2.3c.4.5.6.4,1.5-.3l3.1-2.3Z"/>
      <path class="cls-2" d="M31.8,72.5c-.1.2-.2.3-.2.3,0,0,.1.2.6.5.3.2.7.4,1.1.4.4,0,.8-.2,1.2-.8.5-.7.5-1.6-.4-2.3-.5-.4-.6-.4-.8-.1l-1.4,2ZM32,70.8c.6-.8.7-1,.3-1.3l-.3-.2c0,0,0-.2.2-.2.5.3,1.1.7,2,1.3.5.4,1,.8,1.3,1.3.3.5.3,1.1-.1,1.7-.6.8-1.6.8-2.1.7,0,0,0,.1-.1.2-.1,1.6-.1,2.6,0,3.5,0,.2.2.5.4.7,0,0,0,.1,0,.1,0,0-.2-.1-.4-.2-.7-.5-1-1.1-1-2.4,0-.5,0-1.3,0-1.9,0-.3,0-.5-.4-.7-.4-.3-.4-.3-.5,0l-.8,1.1c-.6.9-.7,1-.3,1.5l.2.2c0,0-.1.2-.2.2-.4-.3-.7-.5-1-.8-.4-.3-.7-.5-1.1-.7,0,0,0-.2.1-.2h.2c.5.4.6.3,1.3-.6l2.2-3.1Z"/>
      <path class="cls-2" d="M42.8,80.8c-.1.4-.1.7,0,.8,0,0,0,.1,0,.1-.1,0-.3,0-.5,0-.6,0-1.3-.1-1.9-.3-1.2-.4-2.2-1.1-2.7-2.1-.4-.8-.5-1.7-.2-2.6.3-.9.8-1.6,1.7-2.1.9-.5,2.1-.7,3.6-.2.6.2,1.1.5,1.2.6.2.1.5.3.6.3-.1.3-.2.9-.3,1.5,0,0-.2,0-.3,0,0-1.2-.6-1.8-1.6-2.1-2-.6-3.3.5-3.7,2-.6,1.9,0,3.8,1.9,4.4.6.2,1,.2,1.2,0,0,0,.2-.2.3-.5v-.4c.4-.9.4-.9-.2-1.2l-.4-.2c0,0,0-.2,0-.3.3.1.8.3,1.4.5.4.1.7.2,1.1.3,0,0,0,.2,0,.3h-.2c-.4-.1-.5.2-.7.7l-.2.6Z"/>
      <path class="cls-2" d="M48.4,77.1c0-1.1,0-1.3-.7-1.3h-.2c0,0,0-.3,0-.3.5,0,.8,0,1.3,0h2c.7,0,1.3,0,1.4,0,0,.2.1.9.2,1.4,0,0-.2,0-.3,0-.2-.5-.3-.9-.8-1-.2,0-.6,0-1,0h-.8c-.3,0-.3,0-.3.4v2.1c0,.3,0,.3.4.3h.6c.4,0,.8,0,.9,0,.1,0,.2-.1.2-.4v-.4c.1,0,.3,0,.4,0,0,.3,0,.7,0,1.1,0,.4,0,.8,0,1,0,0-.2,0-.3,0v-.4c-.1-.2-.2-.3-.4-.4-.1,0-.4,0-.8,0h-.6c-.3,0-.4,0-.3.3v1.5c0,.6,0,.9.2,1.1.1.1.4.2,1.3.2.8,0,1.1,0,1.4-.2.2-.1.5-.5.7-1,0,0,.2,0,.3,0,0,.4-.3,1.2-.5,1.5-1,0-1.9,0-2.8,0h-1c-.5,0-.8,0-1.4,0,0,0,0-.2,0-.3h.4c.6-.1.7-.3.6-1.4v-3.8Z"/>
      <path class="cls-2" d="M63.9,77.4c.1.3.6,1.5.7,1.7,0,0,0,.1-.1.2-.2-.1-.6-.4-1.9-1l-3.3-1.7c-.4-.2-1.4-.7-1.7-.9h0c0,.1,0,.4.2.7l.9,2.1c.2.5.7,1.7,1,2,.1,0,.3,0,.6,0h.3c0,0,.1,0,0,.2-.5.2-.8.3-1.2.4-.4.2-.7.3-1,.4,0,0-.2-.2-.1-.2h.3c.2-.3.3-.4.4-.5,0-.4-.5-1.6-.7-2.1l-1.1-2.9c-.1-.3-.2-.5-.5-.6-.2,0-.5,0-.7,0h-.2c0,0-.1-.1,0-.2.4-.1.9-.3,1.1-.4.2,0,.3-.1.4-.2.4.4,2.1,1.3,2.6,1.5l1.4.7c1,.5,1.7.8,2.3,1.1h0c0,0,0-.2-.1-.4l-.8-2.1c-.2-.5-.7-1.7-1-2,0,0-.3,0-.7,0h-.2c0,0-.1-.1,0-.2.5-.2.8-.3,1.2-.4.4-.2.7-.3,1-.4,0,0,.2.2.1.2h-.1c-.3.3-.5.4-.5.5,0,.4.5,1.6.7,2.1l.9,2.4Z"/>
      <path class="cls-2" d="M71.3,74.5c-.7.6-1.3.8-1.5.8-.2,0-.9-.6-1.2-.9,0,0,0-.2.2-.2.5.3,1.5.8,2.4,0,.7-.6.6-1.3.2-1.8-.3-.4-.7-.7-1.6-.5l-1.2.2c-.6,0-1.5,0-2.1-.6-.7-.8-.6-1.9.4-2.8.2-.2.6-.4.8-.6.1,0,.3-.1.3-.2.2.1.7.5,1,.8,0,0,0,.2-.2.2-.4-.3-1.1-.6-1.9,0-.8.7-.5,1.4-.2,1.7.4.5,1.1.5,1.5.4l1-.2c.8-.1,1.7-.1,2.3.7.8.9.6,2.1-.4,3"/>
      <path class="cls-2" d="M72.3,65.1c-.9-.6-1.1-.7-1.5-.2l-.2.2c0,0-.2,0-.2-.2.3-.4.5-.7.8-1.1.2-.4.4-.7.7-1.1,0,0,.2,0,.2.1v.2c-.4.6-.3.7.6,1.3l3.2,2.1c.9.6,1.1.7,1.5.2l.2-.2c0,0,.2,0,.2.2-.3.4-.5.7-.8,1.1-.2.4-.4.7-.7,1.1,0,0-.2,0-.2-.1v-.2c.4-.6.3-.7-.6-1.3l-3.2-2.1Z"/>
      <path class="cls-2" d="M81,60.1c-.3.8-.7,1.3-.9,1.5-.3,0-1,0-1.5-.2,0,0,0-.2,0-.3.6,0,1.7,0,2.1-1.2.3-.8-.1-1.4-.7-1.6-.4-.1-1-.2-1.7.4l-.9.8c-.5.4-1.3.8-2.1.5-1-.3-1.5-1.3-1.1-2.6.1-.3.3-.7.4-.9,0-.1.1-.3.2-.3.3,0,.9,0,1.3.2,0,0,0,.2,0,.3-.5,0-1.3,0-1.6,1-.3,1,.3,1.4.7,1.6.6.2,1.2-.2,1.5-.5l.8-.6c.6-.5,1.4-.9,2.4-.6,1.1.4,1.6,1.5,1.2,2.8"/>
    </g>
  </g>
</svg>